<?xml version="1.0" encoding="utf-8"?>
<!-- Generator: Adobe Illustrator 21.0.0, SVG Export Plug-In . SVG Version: 6.00 Build 0)  -->
<svg version="1.1" id="Layer_1" xmlns="http://www.w3.org/2000/svg" xmlns:xlink="http://www.w3.org/1999/xlink" x="0px" y="0px"
	 viewBox="0 0 512 512" style="enable-background:new 0 0 512 512;" xml:space="preserve">
<style type="text/css">
	.st0{fill:#71CCE0;}
	.st1{fill:#DFDFDF;}
	.st2{fill:#4A555F;}
	.st3{fill:#FFD452;}
	.st4{fill:#F58E6F;}
	.st5{fill:#FFFFFF;}
	.st6{fill:none;}
</style>
<g>
	<g>
		<g>
			<g>
				<path class="st0" d="M433.641,75.795c-78.536,0-167.107-62.973-167.969-63.601l-11.623-8.545l-11.623,8.545
					c-0.863,0.627-85.513,63.601-164.069,63.601h-19.6v256.697l0.177,1.294c0.196,1.431,4.998,35.397,31.634,73.675
					c24.088,34.633,71.597,80.182,161.089,100.546l4.351,0.98l4.351-0.98c89.492-20.364,136.981-65.913,161.07-100.546
					c26.636-38.278,31.458-72.244,31.633-73.675l0.177-1.294V75.795H433.641z M433.641,315.685c0,15.159-2.812,30.204-8.515,44.25
					c-15.488,38.152-57.735,103.628-169.117,128.962C144.631,463.564,102.374,398.09,86.878,359.938
					c-5.707-14.05-8.521-29.1-8.521-44.265V95.395c86.18,0,175.691-67.423,175.691-67.423s93.431,67.423,179.592,67.423V315.685z"/>
			</g>
		</g>
	</g>
	<g>
		<g>
			<g>
				<path class="st2" d="M433.64,72.854c-77.041,0-165.368-62.408-166.225-63.029L254.049,0l-13.427,9.872
					c-3.493,2.572-86.436,62.983-162.263,62.983h-22.54v245.678c0,13.003,2.005,25.686,5.96,37.697
					c4.281,12.998,12.333,32.728,26.376,52.909c24.38,35.054,72.424,81.158,162.856,101.736l4.997,1.125l5.005-1.127
					c90.407-20.573,138.449-66.679,162.83-101.733c10.814-15.542,19.37-32.165,25.426-49.408
					c4.466-12.714,6.734-26.156,6.743-39.951l0.168-246.926H433.64z M450.133,319.776c-0.009,13.131-2.167,25.919-6.41,38.007
					c-5.882,16.742-14.192,32.891-24.706,47.998c-23.788,34.202-70.737,79.203-159.301,99.357l-3.708,0.834l-3.698-0.833
					c-88.591-20.159-135.542-65.159-159.328-99.36c-13.639-19.6-21.46-38.765-25.618-51.391c-3.759-11.416-5.666-23.48-5.666-35.857
					V78.734h16.66c32.777,0,70.269-10.545,111.434-31.342c30.298-15.307,51.948-31.042,54.376-32.829l9.88-7.265l9.892,7.272
					c0.88,0.641,90.252,64.164,169.699,64.164h16.658L450.133,319.776z"/>
			</g>
		</g>
	</g>
	<g>
		<g>
			<g>
				<path class="st2" d="M433.64,92.454c-43.908,0-89.877-18.141-120.708-33.36c-33.541-16.555-56.931-33.339-57.162-33.506
					l-1.759-1.268l-1.73,1.303c-0.888,0.669-89.701,66.831-173.922,66.831h-2.94v223.219c0,15.833,2.939,31.097,8.736,45.371
					c15.337,37.765,57.975,104.965,171.201,130.719l0.653,0.147l0.653-0.147c113.23-25.754,155.857-92.957,171.188-130.723v-0.001
					c5.794-14.269,8.73-29.529,8.73-45.356V92.454H433.64z M430.7,315.684c0,15.065-2.792,29.581-8.297,43.144
					c-34.556,85.124-118.786,116.118-166.394,127.053c-47.606-10.935-131.836-41.929-166.406-127.049
					c-5.51-13.568-8.304-28.087-8.304-43.158V98.308c78.68-1.379,159.984-57.524,172.785-66.724
					c13.165,9.087,97.805,65.344,176.617,66.724V315.684z"/>
			</g>
		</g>
	</g>
	<g>
		<g>
			<g>
				<path class="st2" d="M380.897,224.957v-7.027c0-9.959-8.102-18.06-18.061-18.06h-71.135
					c4.527-25.922,0.601-52.704-11.965-81.743c-2.245-5.192-7.35-8.546-13.006-8.546c-7.815,0-14.171,6.357-14.171,14.171v22.249
					c0,19.417-8.738,37.458-23.973,49.496l-20.983,16.58v114.498l38.194,19.974h102.771c7.604,0,13.792-6.188,13.792-13.793v-5.637
					c0-3.315-1.175-6.361-3.131-8.742c7.321-2.305,12.646-9.159,12.646-17.231v-7.854c0-5.396-2.377-10.246-6.142-13.557
					c6.537-2.721,11.142-9.174,11.142-16.683v-7.854c0-5.552-2.517-10.527-6.473-13.842
					C376.592,238.487,380.897,232.215,380.897,224.957z M375.017,224.957c0,6.716-5.465,12.18-12.181,12.18h-4.99v5.88h0.97
					c6.716,0,12.179,5.464,12.179,12.18v7.854c0,6.716-5.463,12.18-12.179,12.18h-7.52v5.88h2.519
					c6.716,0,12.181,5.464,12.181,12.18v7.854c0,6.716-5.464,12.18-12.181,12.18h-7.518v5.88h2.272c4.364,0,7.913,3.549,7.913,7.913
					v5.637c0,4.364-3.548,7.914-7.913,7.914H247.24l-33.758-17.654v-108.09l18.748-14.816c16.656-13.16,26.209-32.882,26.209-54.108
					v-22.249c0-4.572,3.719-8.292,8.292-8.292c3.309,0,6.295,1.963,7.608,5c12.642,29.216,16.217,55.959,10.931,81.759l-0.723,3.53
					h78.289c6.716,0,12.181,5.464,12.181,12.18V224.957z"/>
			</g>
		</g>
	</g>
	<g>
		<g>
			<path class="st1" d="M362.838,212.61H276.14l2.41-11.766c4.994-24.375,1.558-49.776-10.502-77.656
				c-0.229-0.527-0.744-0.867-1.317-0.867c-0.788,0-1.432,0.642-1.432,1.431v22.249c0,23.193-10.615,45.111-28.813,59.49
				l-16.143,12.755V318.86l28.585,14.948h94.003c2.365,0,6.411-0.699,6.411-4.331c0-3.537-2.52-3.971-3.759-5.564
				c-1.155-1.485-1.82-3.308-1.82-5.195c0-0.001,0-3.481,0-3.481c0-4.844,3.927-8.77,8.77-8.77h1.281
				c2.939,0,5.321-2.382,5.321-5.321v-7.854c0-2.808-2.191-5.129-4.994-5.291c-5.936-0.342-10.199-5.764-9.141-11.57
				c0.851-4.667,4.918-8.059,9.662-8.059h4.154c2.938,0,5.32-2.382,5.32-5.32v-7.854c0-2.583-1.862-4.791-4.408-5.226
				c-5.371-0.918-8.963-6.04-7.995-11.403l0.022-0.125c0.853-4.727,4.968-8.166,9.771-8.166h1.31c2.938,0,5.32-2.382,5.32-5.32
				v-7.029C368.157,214.991,365.775,212.61,362.838,212.61z"/>
		</g>
	</g>
	<g>
		<g>
			<g>
				<path class="st2" d="M142.074,193.233v149.434h71.409V193.233H142.074z M207.603,336.787h-59.649V199.113h59.649V336.787z"/>
			</g>
		</g>
	</g>
	<g>
		<g>
			<rect x="154.814" y="205.973" class="st3" width="45.93" height="123.954"/>
		</g>
	</g>
	<g>
		<g>
			<g>
				<path class="st2" d="M177.779,209.607c-8.245,0-14.952,6.708-14.952,14.953c0,8.245,6.708,14.953,14.952,14.953
					s14.952-6.708,14.952-14.953C192.731,216.314,186.023,209.607,177.779,209.607z M177.779,233.633
					c-5.002,0-9.073-4.07-9.073-9.073c0-5.003,4.07-9.073,9.073-9.073s9.073,4.07,9.073,9.073
					C186.851,229.562,182.781,233.633,177.779,233.633z"/>
			</g>
		</g>
	</g>
	<g>
		<g>
			<g>
				<path class="st2" d="M124.516,386.468l-4.756,3.458c1.151,1.582,2.348,3.175,3.594,4.775l4.639-3.612
					C126.788,389.542,125.629,388,124.516,386.468z M147.49,412.435l-4.021,4.289l1.278,1.187c1.031,0.948,2.078,1.89,3.139,2.827
					l3.891-4.408c-1.031-0.91-2.048-1.827-3.049-2.747L147.49,412.435z M131.618,395.599l-4.523,3.757
					c1.252,1.507,2.547,3.019,3.885,4.532l4.404-3.895C134.088,398.526,132.832,397.06,131.618,395.599z M135.011,408.298
					c1.347,1.428,2.733,2.854,4.162,4.278l4.152-4.163c-1.385-1.382-2.731-2.766-4.038-4.15L135.011,408.298z M112.162,366.926
					l-5.168,2.806c0.924,1.702,1.904,3.438,2.942,5.205l5.07-2.978C114.003,370.252,113.056,368.572,112.162,366.926z
					 M104.274,350.291c-0.581-1.432-1.128-2.878-1.641-4.334l-5.546,1.954c0.543,1.542,1.123,3.073,1.741,4.595l0.429,1.045
					l5.428-2.262L104.274,350.291z M106.993,356.589l-5.348,2.446c0.796,1.741,1.656,3.541,2.582,5.395l5.26-2.628
					C108.592,360.011,107.762,358.27,106.993,356.589z M118.016,376.897l-4.969,3.143c1.041,1.647,2.132,3.313,3.275,4.997
					l4.865-3.302C120.081,380.105,119.025,378.491,118.016,376.897z M152.414,424.619c1.517,1.264,3.062,2.515,4.632,3.752
					l3.637-4.621c-1.527-1.202-3.029-2.418-4.506-3.648L152.414,424.619z M213.319,461.395c1.818,0.773,3.653,1.528,5.498,2.263
					l2.174-5.463c-1.803-0.718-3.594-1.456-5.371-2.212L213.319,461.395z M247.432,472.718c2.046,0.307,4.129,0.499,6.19,0.567
					l0.199-5.876c-1.837-0.062-3.692-0.233-5.516-0.506L247.432,472.718z M224.362,465.797c1.853,0.69,3.717,1.361,5.595,2.012
					l1.926-5.555c-1.835-0.637-3.658-1.293-5.468-1.968L224.362,465.797z M202.489,456.498c1.781,0.854,3.577,1.692,5.388,2.509
					l2.421-5.357c-1.769-0.8-3.525-1.618-5.266-2.454L202.489,456.498z M237.391,464.097l-1.803,5.597
					c1.311,0.422,2.626,0.834,3.949,1.237c0.605,0.184,1.209,0.358,1.818,0.521l1.52-5.681c-0.543-0.146-1.087-0.301-1.627-0.465
					C239.956,464.912,238.671,464.509,237.391,464.097z M181.555,445.234c1.693,1.016,3.404,2.016,5.134,3l2.907-5.111
					c-1.689-0.961-3.362-1.938-5.015-2.93L181.555,445.234z M171.504,438.862c1.641,1.099,3.305,2.181,4.989,3.248l3.147-4.967
					c-1.642-1.04-3.265-2.098-4.866-3.169L171.504,438.862z M161.775,431.994c1.583,1.18,3.191,2.347,4.821,3.497l3.39-4.804
					c-1.589-1.122-3.154-2.258-4.697-3.407L161.775,431.994z M191.893,451.111c1.739,0.935,3.495,1.854,5.266,2.754l2.664-5.242
					c-1.731-0.88-3.447-1.777-5.146-2.69L191.893,451.111z M99.476,334.992l-5.736,1.296c0.443,1.963,0.949,3.934,1.504,5.861
					l5.65-1.627C100.371,338.704,99.894,336.845,99.476,334.992z M96.978,182.949h-5.88v5.88h5.88V182.949z M96.978,171.189h-5.88
					v5.88h5.88V171.189z M96.978,159.43h-5.88v5.88h5.88V159.43z M96.978,194.709h-5.88v5.88h5.88V194.709z M96.978,124.15h-5.88
					v5.88h5.88V124.15z M96.978,147.67h-5.88v5.88h5.88V147.67z M96.978,112.391h-5.88v5.88h5.88V112.391z M96.978,206.469h-5.88
					v5.88h5.88V206.469z M96.978,135.91h-5.88v5.88h5.88V135.91z M96.978,229.988h-5.88v5.88h5.88V229.988z M96.978,300.547h-5.88
					v5.88h5.88V300.547z M96.978,277.027h-5.88v5.88h5.88V277.027z M96.978,288.787h-5.88v5.88h5.88V288.787z M96.978,312.307h-5.88
					c0,2.021,0.054,4.052,0.164,6.038l5.87-0.32C97.03,316.146,96.978,314.222,96.978,312.307z M96.978,218.229h-5.88v5.88h5.88
					V218.229z M97.596,323.727l-5.845,0.637c0.218,1.996,0.496,4.012,0.826,5.99l5.8-0.968
					C98.064,327.518,97.802,325.613,97.596,323.727z M96.978,265.268h-5.88v5.88h5.88V265.268z M96.978,241.748h-5.88v5.88h5.88
					V241.748z M96.978,253.508h-5.88v5.88h5.88V253.508z M302.891,452.839l2.427,5.355c1.814-0.821,3.61-1.659,5.39-2.516
					l-2.549-5.298C306.42,451.216,304.663,452.035,302.891,452.839z M411.917,256.102h5.88v-5.88h-5.88V256.102z M411.917,244.343
					h5.88v-5.88h-5.88V244.343z M411.917,232.583h5.88v-5.88h-5.88V232.583z M411.917,220.823h5.88v-5.88h-5.88V220.823z
					 M411.917,209.063h5.88v-5.88h-5.88V209.063z M411.917,303.142h5.88v-5.88h-5.88V303.142z M411.917,291.382h5.88v-5.88h-5.88
					V291.382z M411.917,279.622h5.88v-5.88h-5.88V279.622z M411.917,267.862h5.88v-5.88h-5.88V267.862z M411.917,310.337
					c0.002,1.448-0.029,2.935-0.086,4.452l5.876,0.224c0.061-1.595,0.092-3.161,0.09-4.68v-1.312h-5.88V310.337z M411.917,150.264
					h5.88v-5.88h-5.88V150.264z M411.917,126.745h5.88v-5.88h-5.88V126.745z M411.917,138.505h5.88v-5.88h-5.88V138.505z
					 M411.917,109.105v5.88h5.88v-5.88H411.917z M411.917,162.024h5.88v-5.88h-5.88V162.024z M411.917,197.303h5.88v-5.88h-5.88
					V197.303z M411.917,185.544h5.88v-5.88h-5.88V185.544z M411.917,173.784h5.88v-5.88h-5.88V173.784z M408.981,337.601l5.75,1.239
					c0.412-1.917,0.792-3.906,1.127-5.911l-5.799-0.97C409.739,333.874,409.375,335.772,408.981,337.601z M343.014,429.613
					l3.472,4.745c1.61-1.177,3.196-2.373,4.764-3.589l-3.606-4.645C346.123,427.306,344.578,428.468,343.014,429.613z
					 M360.888,414.879l4.004,4.307c1.476-1.372,2.911-2.75,4.308-4.129l-4.13-4.184
					C363.715,412.211,362.321,413.547,360.888,414.879z M352.171,422.507l3.74,4.536c1.539-1.268,3.055-2.554,4.55-3.861
					l-3.874-4.425C355.138,420.025,353.664,421.275,352.171,422.507z M323.566,442.255l2.94,5.093
					c1.726-0.996,3.436-2.011,5.122-3.043l-3.07-5.015C326.914,440.296,325.25,441.283,323.566,442.255z M333.465,436.195
					l3.204,4.93c1.673-1.086,3.325-2.191,4.954-3.316l-3.338-4.841C336.698,434.063,335.092,435.137,333.465,436.195z
					 M313.36,447.799l2.676,5.235c1.776-0.908,3.531-1.833,5.269-2.776l-2.806-5.168C316.804,446.01,315.091,446.913,313.36,447.799
					z M270.243,465.11l1.727,5.622c1.902-0.584,3.788-1.184,5.66-1.799l-1.837-5.585C273.958,463.95,272.107,464.538,270.243,465.11
					z M281.302,461.476l1.948,5.547c1.878-0.659,3.74-1.335,5.583-2.027l-2.063-5.505
					C284.966,460.167,283.142,460.83,281.302,461.476z M410.89,326.26l5.834,0.723c0.249-2.002,0.454-3.997,0.618-5.968
					l-5.861-0.488C411.324,322.421,411.127,324.337,410.89,326.26z M292.195,457.391l2.182,5.461
					c1.849-0.74,3.683-1.495,5.495-2.266l-2.301-5.411C295.797,455.929,294.006,456.668,292.195,457.391z M405.98,348.606
					l5.562,1.904c0.624-1.822,1.219-3.776,1.771-5.809l-5.677-1.537C407.119,345.074,406.562,346.905,405.98,348.606z
					 M401.606,359.193l5.336,2.469c0.878-1.899,1.681-3.728,2.416-5.477l-5.42-2.276
					C403.229,355.597,402.455,357.361,401.606,359.193z M259.353,467.273l0.482,5.861c2.048-0.168,4.117-0.459,6.15-0.863
					l-1.145-5.767C263.023,466.864,261.178,467.123,259.353,467.273z M396.395,369.508l5.157,2.827
					c0.987-1.803,1.916-3.569,2.787-5.29l-5.248-2.653C398.25,366.058,397.352,367.765,396.395,369.508z M383.961,389.001
					l4.743,3.476c1.198-1.635,2.351-3.261,3.455-4.872l-4.85-3.325C386.239,385.841,385.125,387.415,383.961,389.001z
					 M376.826,398.105l4.509,3.774c1.298-1.551,2.552-3.1,3.761-4.642l-4.628-3.629
					C379.297,395.103,378.085,396.603,376.826,398.105z M390.5,379.457l4.958,3.162c1.097-1.719,2.14-3.417,3.131-5.088
					l-5.057-3.001C392.57,376.147,391.562,377.792,390.5,379.457z M369.122,406.74l4.26,4.052c1.394-1.464,2.741-2.929,4.046-4.395
					l-4.387-3.914C371.775,403.903,370.469,405.322,369.122,406.74z"/>
			</g>
		</g>
	</g>
	<g>
		<g>
			<g>
				<path class="st2" d="M287.379,76.17c1.727,0.882,3.491,1.769,5.296,2.66l2.603-5.271c-1.778-0.879-3.52-1.755-5.225-2.625
					L287.379,76.17z M308.751,86.385c1.784,0.795,3.593,1.588,5.424,2.376l2.324-5.401c-1.805-0.777-3.591-1.56-5.352-2.346
					L308.751,86.385z M319.635,91.064c1.811,0.75,3.64,1.494,5.491,2.23l2.17-5.465c-1.824-0.724-3.627-1.458-5.411-2.197
					L319.635,91.064z M298,81.42c1.757,0.839,3.545,1.678,5.357,2.517l2.469-5.336c-1.793-0.829-3.558-1.658-5.292-2.486L298,81.42z
					 M256.468,58.491c1.548,1.014,3.227,2.083,5.032,3.199l3.093-5.001c-1.759-1.087-3.396-2.129-4.906-3.117L256.468,58.491z
					 M276.902,70.629c1.69,0.925,3.43,1.86,5.219,2.807l2.749-5.197c-1.763-0.933-3.479-1.856-5.143-2.769L276.902,70.629z
					 M266.583,64.765c1.638,0.969,3.352,1.962,5.137,2.976l2.906-5.112c-1.755-0.997-3.441-1.973-5.049-2.925L266.583,64.765z
					 M364.386,106.604c1.903,0.527,3.811,1.038,5.727,1.533l1.47-5.694c-1.882-0.485-3.759-0.987-5.627-1.504L364.386,106.604z
					 M387.504,112.075c1.951,0.379,3.903,0.736,5.859,1.071l0.992-5.796c-1.91-0.327-3.82-0.677-5.729-1.048L387.504,112.075z
					 M375.878,109.562c1.927,0.458,3.86,0.896,5.792,1.315l1.248-5.746c-1.896-0.411-3.792-0.842-5.681-1.29L375.878,109.562z
					 M330.642,95.448c1.836,0.7,3.687,1.392,5.551,2.074L338.21,92c-1.837-0.672-3.661-1.354-5.47-2.045L330.642,95.448z
					 M400.104,108.264l-0.854,5.817c1.971,0.29,3.943,0.555,5.915,0.794l0.708-5.838
					C403.951,108.804,402.03,108.546,400.104,108.264z M341.774,99.515c1.861,0.648,3.73,1.284,5.612,1.909l1.853-5.582
					c-1.854-0.615-3.698-1.242-5.528-1.88L341.774,99.515z M353.029,103.246c1.877,0.59,3.765,1.166,5.66,1.727l1.669-5.637
					c-1.864-0.553-3.721-1.12-5.568-1.7L353.029,103.246z"/>
			</g>
		</g>
	</g>
	<g>
		<g>
			<g>
				<path class="st2" d="M137.382,104.891l1.506,5.683c1.916-0.507,3.823-1.036,5.722-1.584l-1.629-5.65
					C141.123,103.875,139.256,104.393,137.382,104.891z M148.55,101.674l1.742,5.616c1.89-0.587,3.771-1.189,5.641-1.807
					l-1.847-5.583C152.251,100.506,150.406,101.099,148.55,101.674z M159.603,98.017l1.947,5.549
					c1.874-0.657,3.735-1.331,5.582-2.016l-2.046-5.512C163.271,96.711,161.444,97.371,159.603,98.017z M126.085,107.624l1.25,5.746
					c1.937-0.421,3.87-0.867,5.796-1.333l-1.386-5.715C129.866,106.778,127.979,107.212,126.085,107.624z M114.679,109.819
					l0.965,5.8c1.958-0.325,3.913-0.676,5.863-1.051l-1.11-5.775C118.494,109.159,116.589,109.501,114.679,109.819z M103.187,111.41
					l0.641,5.845c1.975-0.216,3.949-0.462,5.92-0.736l-0.808-5.824C107.025,110.961,105.107,111.199,103.187,111.41z
					 M170.537,93.959l2.138,5.478c1.852-0.723,3.688-1.458,5.507-2.202l-2.228-5.441C174.164,92.527,172.358,93.249,170.537,93.959z
					 M233.291,62.88l3.024,5.042c1.755-1.052,3.443-2.079,5.059-3.075l-3.085-5.005C236.692,60.827,235.023,61.84,233.291,62.88z
					 M212.93,74.379l2.758,5.193c1.776-0.943,3.514-1.881,5.212-2.813l-2.825-5.156C216.396,72.522,214.682,73.448,212.93,74.379z
					 M223.183,68.758l2.89,5.122c1.763-0.994,3.476-1.978,5.139-2.947l-2.959-5.082C226.613,66.806,224.923,67.777,223.183,68.758z
					 M181.34,89.539l2.31,5.407c1.831-0.782,3.642-1.574,5.433-2.373l-2.394-5.371C184.925,87.99,183.142,88.769,181.34,89.539z
					 M248.155,53.573c-1.521,0.997-3.162,2.056-4.911,3.166l3.151,4.965c1.776-1.127,3.439-2.201,4.984-3.214L248.155,53.573z
					 M202.537,79.727l2.622,5.262c1.79-0.891,3.552-1.783,5.283-2.674l-2.689-5.229C206.042,77.965,204.303,78.845,202.537,79.727z
					 M192.005,84.789l2.471,5.334c1.811-0.838,3.597-1.681,5.359-2.528l-2.548-5.3C195.551,83.13,193.789,83.962,192.005,84.789z"/>
			</g>
		</g>
	</g>
</g>
</svg>
