<?xml version="1.0" encoding="utf-8"?>
<!-- Generator: Adobe Illustrator 24.0.0, SVG Export Plug-In . SVG Version: 6.00 Build 0)  -->
<svg version="1.1" xmlns="http://www.w3.org/2000/svg" xmlns:xlink="http://www.w3.org/1999/xlink" x="0px" y="0px"
	 viewBox="0 0 256 256" enable-background="new 0 0 256 256" xml:space="preserve">
<g id="Layer_2">
</g>
<g id="Layer_1">
	<g>
		<path fill="#72C2E9" d="M220.87,92.593v57.83c-21.35-24.5-58.06-27.84-83.41-7.87v-52.88l-9.66-9.66
			c1.04-1.76,2.28-3.37,3.69-4.79c4.62-4.69,10.99-7.42,17.67-7.42h46.91C209.77,67.803,220.87,78.903,220.87,92.593z"/>
		<path fill="#4BA5C8" d="M220.87,141.793v8.63c-21.361-24.524-58.095-27.834-83.41-7.87v-52.88l-9.66-9.66
			c1.04-1.76,2.28-3.37,3.69-4.79l10.51,10.5c0.93,0.94,1.46,2.21,1.46,3.54v42.24C169.182,117.669,200.304,122.344,220.87,141.793z
			"/>
		<path fill="#EFEFEF" d="M137.46,89.673v52.88c-27.08,21.32-30.91,60.67-8.97,86.79H25.22c-2.76,0-5-2.24-5-5V64.813
			c0-2.77,2.24-5,5-5h82.38l20.2,20.2L137.46,89.673z"/>
		<path fill="#AFAFAF" d="M137.462,89.681v7.436h-25.729c-6.379,0-11.567-5.189-11.567-11.567V59.813h7.436V85.55
			c0,2.28,1.842,4.131,4.131,4.131H137.462z"/>
		<path fill="#FFB69F" d="M48.994,118.934L48.994,118.934c-8.101,0-14.668-6.567-14.668-14.668V92.026h29.336v12.241
			C63.662,112.367,57.095,118.934,48.994,118.934z"/>
		<path fill="#7C7B7A" d="M66.245,73.769l-6.328,3.303c-1.626,0.849-3.433,1.292-5.267,1.292H41.095
			c-4.705,0-8.292,4.211-7.543,8.856l0.775,4.807h29.336l0,0c4.543-4.84,5.629-11.981,2.73-17.953L66.245,73.769z"/>
		<path fill="#AFAFAF" d="M137.46,135.133v7.42c-27.03,21.29-30.95,60.63-8.97,86.79h-7.61c-9.61-13.27-13.94-29.38-12.25-45.89
			C110.76,162.823,121.88,145.713,137.46,135.133z"/>
		<path fill="#13BF6D" d="M235.78,190.293c0,33.56-27.2,60.76-60.75,60.76c-18.68,0-35.4-8.43-46.54-21.71
			c-21.94-26.12-18.11-65.47,8.97-86.79c25.35-19.97,62.06-16.63,83.41,7.87C230.16,161.093,235.78,175.033,235.78,190.293z"/>
		<path fill="#EFEFEF" d="M196.773,164.668l-32.704,32.704l-10.783-10.783c-3.417-3.417-8.957-3.417-12.374,0l0,0
			c-3.417,3.417-3.417,8.957,0,12.374l16.971,16.971c3.417,3.417,8.957,3.417,12.374,0l38.891-38.891
			c3.417-3.417,3.417-8.957,0-12.374l0,0C205.731,161.251,200.191,161.251,196.773,164.668z"/>
		<path fill="#FFB69F" d="M172.619,67.806L172.619,67.806c-11.274,0-20.413-9.139-20.413-20.413V30.358h40.826v17.035
			C193.032,58.667,183.893,67.806,172.619,67.806z"/>
		<path fill="#7C7B7A" d="M196.626,4.95l-8.807,4.596c-2.263,1.181-4.777,1.798-7.329,1.798h-18.864
			c-6.548,0-11.54,5.861-10.498,12.325l1.078,6.69h40.826l0,0c6.322-6.736,7.833-16.674,3.799-24.985L196.626,4.95z"/>
		<g>
			<path fill="#C4E5FE" d="M213.61,130.503c-1.381,0-2.5-1.119-2.5-2.5v-3.955c0-1.381,1.119-2.5,2.5-2.5s2.5,1.119,2.5,2.5v3.955
				C216.11,129.384,214.991,130.503,213.61,130.503z M213.61,116.548c-1.381,0-2.5-1.119-2.5-2.5V92.596
				c0-8.288-6.747-15.03-15.04-15.03c-1.381,0-2.5-1.119-2.5-2.5s1.119-2.5,2.5-2.5c11.05,0,20.04,8.985,20.04,20.03v21.452
				C216.11,115.429,214.991,116.548,213.61,116.548z"/>
		</g>
		<g>
			<path fill="#76FFBB" d="M175.03,244.556c-11.225,0-21.995-3.397-31.146-9.824c-1.13-0.793-1.403-2.353-0.609-3.482
				c0.793-1.13,2.354-1.403,3.482-0.609c8.307,5.833,18.083,8.916,28.273,8.916c27.156,0,49.25-22.098,49.25-49.26
				c0-11.891-4.291-23.368-12.082-32.317c-0.906-1.042-0.797-2.621,0.244-3.527s2.621-0.797,3.527,0.244
				c8.583,9.859,13.311,22.502,13.311,35.601C229.28,220.216,204.943,244.556,175.03,244.556z M135.941,227.921
				c-0.854-0.889-1.686-1.815-2.472-2.752c-0.887-1.058-0.748-2.635,0.311-3.522c1.056-0.887,2.634-0.749,3.521,0.31
				c0.713,0.851,1.469,1.692,2.245,2.5c0.956,0.995,0.925,2.578-0.07,3.535C138.484,228.947,136.901,228.918,135.941,227.921z"/>
		</g>
		<path d="M68.491,72.674c-0.612-1.259-2.149-1.775-3.403-1.122l-6.328,3.303c-1.264,0.659-2.685,1.008-4.11,1.008H41.095
			c-6.244,0-11.006,5.595-10.011,11.754l0.742,4.607v12.043c0,9.466,7.701,17.168,17.168,17.168s17.168-7.702,17.168-17.168V92.957
			C70.621,87.63,71.989,79.854,68.491,72.674z M41.095,80.863h13.555c2.228,0,4.449-0.545,6.423-1.575l3.879-2.024
			c1.22,4.198,0.329,8.819-2.428,12.263H36.456l-0.437-2.705C35.515,83.695,37.932,80.863,41.095,80.863z M61.162,104.266
			c0,6.709-5.459,12.168-12.168,12.168s-12.168-5.458-12.168-12.168v-9.74h24.336V104.266z"/>
		<circle cx="220.87" cy="110.983" r="2.5"/>
		<circle cx="56.7" cy="59.813" r="2.5"/>
		<path d="M25.22,231.843h102.148c12.024,13.802,29.317,21.71,47.663,21.71c34.876,0,63.25-28.378,63.25-63.26
			c0-14.949-5.296-29.384-14.91-40.773v-28.537c0-1.38-1.12-2.5-2.5-2.5s-2.5,1.12-2.5,2.5v23.24
			c-4.478-4.219-9.448-7.675-14.73-10.355V97.686c0-1.381-1.119-2.5-2.5-2.5s-2.5,1.119-2.5,2.5v33.923
			c-18.912-7.606-40.918-5.812-58.68,6.061V89.673c0-0.66-0.26-1.29-0.73-1.76l-8.226-8.226c4.158-5.83,10.942-9.384,18.157-9.384
			c2.277,0,32.375,0,46.909,0c12.28,0.03,22.28,10.03,22.301,22.29v8.39c0,1.38,1.12,2.5,2.5,2.5s2.5-1.12,2.5-2.5v-8.39
			c0-15.073-12.216-27.29-27.301-27.29h-9.184c5.264-4.202,8.646-10.666,8.646-17.91v-16.12c6.174-7.165,8.138-17.364,3.349-27.411
			c-0.67-1.338-2.214-1.759-3.41-1.13l-8.81,4.6c-1.891,0.99-4.03,1.51-6.17,1.51h-9.45c-1.38,0-2.5,1.12-2.5,2.5s1.12,2.5,2.5,2.5
			h9.45c2.939,0,5.88-0.72,8.489-2.08l6.42-3.35c2.434,6.792,0.964,14.147-3.486,19.445h-37.584l-0.73-4.585
			c-0.325-1.784,0.027-3.93,1.2-5.73c0.75-1.15,0.43-2.7-0.73-3.46c-1.119-0.73-2.729-0.38-3.46,0.73
			c-1.767,2.721-2.475,5.974-1.949,9.26l1.046,6.469v16.852c0,7.243,3.382,13.708,8.646,17.91h-9.192
			c-8.546,0.009-16.608,4.081-21.73,10.81L109.388,58.07c-0.454-0.466-1.086-0.757-1.788-0.757H66.7c-1.37,0-2.5,1.12-2.5,2.5
			c0,1.38,1.13,2.5,2.5,2.5H105.1v23.24c0.01,3.65,2.98,6.62,6.63,6.63h23.23v49.195c-26.351,21.569-30.302,59.099-11.539,85.465
			H25.22c-1.37,0-2.5-1.12-2.5-2.5V64.813c0-1.37,1.12-2.5,2.5-2.5H46.7c1.38,0,2.5-1.12,2.5-2.5c0-1.37-1.12-2.49-2.5-2.49
			l-21.48-0.01c-4.13,0.01-7.49,3.38-7.5,7.5v159.53C17.72,228.483,21.09,231.843,25.22,231.843z M154.706,47.393V32.858h35.825
			v14.535c0,9.773-7.906,17.91-17.979,17.91C162.706,65.266,154.706,57.248,154.706,47.393z M110.1,85.553v-19.7l21.33,21.33h-19.7
			C110.83,87.183,110.1,86.453,110.1,85.553z M117.089,184.315c1.628-15.818,9.412-29.952,21.918-39.798
			c24.404-19.225,59.537-15.909,79.978,7.548c9.219,10.588,14.296,24.165,14.296,38.229c0,32.125-26.131,58.26-58.25,58.26
			C140.88,248.553,113.508,219.082,117.089,184.315z"/>
		<path d="M156.115,217.701c4.395,4.397,11.514,4.397,15.909,0l38.891-38.891c4.387-4.386,4.387-11.523,0-15.91
			c-4.386-4.386-11.521-4.388-15.909,0l-30.937,30.936l-9.016-9.015c-4.386-4.386-11.521-4.388-15.909,0
			c-4.387,4.386-4.387,11.523,0,15.91L156.115,217.701z M142.68,188.356c2.438-2.437,6.401-2.436,8.839,0l10.783,10.783
			c0.977,0.977,2.559,0.977,3.535,0l32.704-32.704c2.438-2.436,6.401-2.437,8.839,0c2.437,2.437,2.437,6.402,0,8.839l-38.891,38.891
			c-2.442,2.442-6.396,2.443-8.839,0l-16.971-16.97C140.243,194.759,140.243,190.793,142.68,188.356z"/>
		<path d="M114.28,113.837c1.381,0,2.5-1.119,2.5-2.5s-1.119-2.5-2.5-2.5H81.667c-1.381,0-2.5,1.119-2.5,2.5s1.119,2.5,2.5,2.5
			H114.28z"/>
		<path d="M37.479,139.503h20.58c1.381,0,2.5-1.119,2.5-2.5s-1.119-2.5-2.5-2.5h-20.58c-1.381,0-2.5,1.119-2.5,2.5
			S36.099,139.503,37.479,139.503z"/>
		<path d="M73.312,137.003c0,1.381,1.119,2.5,2.5,2.5h38.468c1.381,0,2.5-1.119,2.5-2.5s-1.119-2.5-2.5-2.5H75.812
			C74.432,134.503,73.312,135.622,73.312,137.003z"/>
		<path d="M37.479,156.003h20.58c1.381,0,2.5-1.119,2.5-2.5s-1.119-2.5-2.5-2.5h-20.58c-1.381,0-2.5,1.119-2.5,2.5
			S36.099,156.003,37.479,156.003z"/>
		<path d="M75.812,156.003H109.5c1.381,0,2.5-1.119,2.5-2.5s-1.119-2.5-2.5-2.5H75.812c-1.381,0-2.5,1.119-2.5,2.5
			S74.432,156.003,75.812,156.003z"/>
		<path d="M37.479,172.503h20.58c1.381,0,2.5-1.119,2.5-2.5s-1.119-2.5-2.5-2.5h-20.58c-1.381,0-2.5,1.119-2.5,2.5
			S36.099,172.503,37.479,172.503z"/>
		<path d="M75.812,172.503H103.5c1.381,0,2.5-1.119,2.5-2.5s-1.119-2.5-2.5-2.5H75.812c-1.381,0-2.5,1.119-2.5,2.5
			S74.432,172.503,75.812,172.503z"/>
		<path d="M34.979,202.67c0,1.381,1.119,2.5,2.5,2.5h52.177c1.381,0,2.5-1.119,2.5-2.5s-1.119-2.5-2.5-2.5H37.479
			C36.099,200.17,34.979,201.289,34.979,202.67z"/>
		<path d="M161.04,13.863c1.415,0,2.573-1.195,2.5-2.64c-0.07-1.37-1.24-2.43-2.63-2.36c-1.414,0.085-2.442,1.269-2.36,2.63
			C158.62,12.823,159.72,13.863,161.04,13.863z"/>
		<path d="M182.072,51.029c0-1.381-1.119-2.5-2.5-2.5s-2.5,1.119-2.5,2.5c0,2.456-1.998,4.454-4.453,4.454
			c-2.456,0-4.454-1.998-4.454-4.454c0-1.381-1.119-2.5-2.5-2.5s-2.5,1.119-2.5,2.5c0,5.213,4.241,9.454,9.454,9.454
			S182.072,56.242,182.072,51.029z"/>
		<path d="M165.925,40.878v-0.688c0-1.381-1.119-2.5-2.5-2.5s-2.5,1.119-2.5,2.5v0.688c0,1.381,1.119,2.5,2.5,2.5
			S165.925,42.259,165.925,40.878z"/>
		<path d="M181.813,43.378c1.381,0,2.5-1.119,2.5-2.5v-0.688c0-1.381-1.119-2.5-2.5-2.5s-2.5,1.119-2.5,2.5v0.688
			C179.313,42.259,180.432,43.378,181.813,43.378z"/>
	</g>
</g>
</svg>
