<?xml version="1.0" encoding="utf-8"?>
<!-- Generator: Adobe Illustrator 23.0.3, SVG Export Plug-In . SVG Version: 6.00 Build 0)  -->
<svg version="1.1" xmlns="http://www.w3.org/2000/svg" xmlns:xlink="http://www.w3.org/1999/xlink" x="0px" y="0px"
	 viewBox="0 0 256 256" style="enable-background:new 0 0 256 256;" xml:space="preserve">
<style type="text/css">
	.st0{fill:#878787;}
	.st1{fill:#F2E1D6;}
	.st2{fill:#FFFFFF;}
	.st3{fill:#F0C020;}
	.st4{fill:#F9E5AF;}
	.st5{fill:#72C1E8;}
	.st6{fill:#C5E5FF;}
	.st7{fill:#13BF6D;}
	.st8{fill:#76FFBA;}
	.st9{fill:#EFEFEF;}
	.st10{fill:#FC5D3D;}
	.st11{fill:#FFCBC2;}
	.st12{fill:#FFB69F;}
	.st13{fill:#AFAFAF;}
	.st14{fill:#7C7B7A;}
	.st15{fill:#D6C0B4;}
	.st16{fill:#7A7380;}
	.st17{fill:#F0AB20;}
	.st18{fill:#FBE0E2;}
	.st19{fill:#4C4945;}
	.st20{fill:#68B0D4;}
	.st21{fill:#B35034;}
	.st22{fill:#EDAF85;}
	.st23{fill:#139C6D;}
</style>
<g id="Layer_2">
</g>
<g id="Layer_1">
	<g>
		<g>
			<g>
				<polygon class="st1" points="189.923,33.55 189.923,134.509 66.075,134.509 66.075,7.003 163.377,7.003 				"/>
			</g>
			<g>
				<rect x="66.075" y="128.043" class="st15" width="123.848" height="6.466"/>
			</g>
			<g>
				<path class="st2" d="M177.148,123.587h-9.778c-1.381,0-2.5-1.119-2.5-2.5s1.119-2.5,2.5-2.5h9.778c1.381,0,2.5,1.119,2.5,2.5
					S178.529,123.587,177.148,123.587z M157.37,123.587H78.183c-1.381,0-2.5-1.119-2.5-2.5V20.274c0-1.381,1.119-2.5,2.5-2.5
					s2.5,1.119,2.5,2.5v98.313h76.687c1.381,0,2.5,1.119,2.5,2.5S158.751,123.587,157.37,123.587z"/>
			</g>
			<path class="st10" d="M221.826,134.506H34.174c-2.969,0-5.376,2.407-5.376,5.376v19.864h198.403v-19.864
				C227.201,136.913,224.795,134.506,221.826,134.506z"/>
			<g>
				<g>
					<path class="st3" d="M161.721,65.278c0,10.507-4.803,19.887-12.344,26.076C143.551,96.122,136.113,99,127.999,99
						s-15.552-2.878-21.378-7.646c-7.542-6.189-12.344-15.569-12.344-26.076c0-18.638,15.101-33.739,33.722-33.739
						S161.721,46.639,161.721,65.278z"/>
				</g>
				<g>
					<path class="st5" d="M149.377,89.325v2.028C143.551,96.122,136.113,99,127.999,99s-15.552-2.878-21.378-7.646v-2.028
						c0-9.571,7.75-17.338,17.338-17.338h8.08C141.627,71.987,149.377,79.755,149.377,89.325z"/>
				</g>
				<g>
					<path class="st14" d="M139.247,42.537l-4.126,2.153c-1.06,0.553-2.238,0.842-3.434,0.842h-8.269
						c-3.068,0-4.983,2.584-4.983,5.775v3.134h19.128v0C140.396,51.423,141.347,46.865,139.247,42.537z"/>
				</g>
				<g>
					<path class="st12" d="M128.009,71.987L128.009,71.987c-5.282,0-9.564-4.282-9.564-9.564v-7.981h19.128v7.981
						C137.573,67.705,133.291,71.987,128.009,71.987z"/>
				</g>
			</g>
			<g>
				<path class="st11" d="M172.827,149.626H40.147c-1.381,0-2.5-1.119-2.5-2.5s1.119-2.5,2.5-2.5h132.679c1.381,0,2.5,1.119,2.5,2.5
					S174.208,149.626,172.827,149.626z"/>
			</g>
		</g>
		<path d="M132.189,240.116v-6.875c0-1.381-1.119-2.5-2.5-2.5s-2.5,1.119-2.5,2.5v6.875c0,1.381,1.119,2.5,2.5,2.5
			S132.189,241.497,132.189,240.116z"/>
		<path d="M170.864,202.644c-1.381,0-2.5,1.119-2.5,2.5v2.031c0,1.381,1.119,2.5,2.5,2.5s2.5-1.119,2.5-2.5v-2.031
			C173.364,203.763,172.245,202.644,170.864,202.644z"/>
		<circle cx="108.6" cy="189" r="2.5"/>
		<path d="M106.1,249c0,1.38,1.13,2.5,2.5,2.5c1.38,0,2.5-1.12,2.5-2.5v-50c0-1.38-1.12-2.5-2.5-2.5c-1.37,0-2.5,1.12-2.5,2.5V249z"
			/>
		<path d="M63.58,7v125.006H34.174c-4.343,0-7.876,3.533-7.876,7.875v19.865c0,1.381,1.119,2.5,2.5,2.5h33.71v33.698
			c0,5.104-4.153,9.257-9.257,9.257s-9.257-4.153-9.257-9.257s4.153-9.257,9.257-9.257c1.381,0,2.5-1.119,2.5-2.5
			s-1.119-2.5-2.5-2.5c-7.861,0-14.257,6.396-14.257,14.257s6.396,14.257,14.257,14.257s14.257-6.396,14.257-14.257v-33.698h16.235
			v52.515c0,4.763-3.875,8.638-8.638,8.638c-4.763,0-8.638-3.875-8.638-8.638c0-1.381-1.119-2.5-2.5-2.5s-2.5,1.119-2.5,2.5
			c0,7.52,6.118,13.638,13.638,13.638s13.638-6.118,13.638-13.638v-52.515H106.1V179c0,1.38,1.13,2.5,2.5,2.5
			c1.38,0,2.5-1.12,2.5-2.5v-16.753h16.774v55.73c0,1.381,1.119,2.5,2.5,2.5s2.5-1.119,2.5-2.5v-55.73h16.76v63.296
			c0,7.52,6.118,13.638,13.638,13.638s13.638-6.118,13.638-13.638c0-1.381-1.119-2.5-2.5-2.5s-2.5,1.119-2.5,2.5
			c0,4.763-3.875,8.638-8.638,8.638c-4.763,0-8.638-3.875-8.638-8.638v-63.296h13.723v35.029c0,1.381,1.119,2.5,2.5,2.5
			s2.5-1.119,2.5-2.5v-35.029h15.138v33.698c0,7.861,6.396,14.257,14.257,14.257c7.856,0,14.247-6.396,14.247-14.257
			s-6.391-14.257-14.247-14.257c-1.381,0-2.5,1.119-2.5,2.5s1.119,2.5,2.5,2.5c5.099,0,9.247,4.153,9.247,9.257
			s-4.148,9.257-9.247,9.257c-5.104,0-9.257-4.153-9.257-9.257v-33.698h33.707c1.381,0,2.5-1.119,2.5-2.5v-19.865
			c0-4.343-3.533-7.875-7.876-7.875H192.42V84.51c0-1.38-1.12-2.5-2.5-2.5s-2.5,1.12-2.5,2.5v47.497H68.579L68.57,9.5h92.306v24.047
			c0,1.381,1.119,2.5,2.5,2.5h24.044V64.51c0,1.37,1.12,2.5,2.5,2.5s2.5-1.13,2.5-2.5c0-0.01,0-0.01,0-0.02V33.55
			c0-0.681-0.317-1.353-0.725-1.764c-0.002-0.002-0.003-0.004-0.005-0.006L165.143,5.232c-0.001-0.001-0.003-0.002-0.005-0.003
			c-0.417-0.417-1.094-0.729-1.759-0.729h-97.3C64.719,4.5,63.58,5.593,63.58,7z M224.702,139.882v17.365H31.298v-17.365
			c0-1.585,1.29-2.875,2.876-2.875c4.501,0,183.032,0,187.651,0C223.412,137.006,224.702,138.296,224.702,139.882z M165.875,31.047
			V13.036l18.012,18.012H165.875z"/>
		<circle cx="189.92" cy="74.51" r="2.5"/>
		<path d="M207.718,149.626h2.867c1.381,0,2.5-1.119,2.5-2.5s-1.119-2.5-2.5-2.5h-2.867c-1.381,0-2.5,1.119-2.5,2.5
			S206.337,149.626,207.718,149.626z"/>
		<path d="M187.648,144.626c-1.381,0-2.5,1.119-2.5,2.5s1.119,2.5,2.5,2.5h2.867c1.381,0,2.5-1.119,2.5-2.5s-1.119-2.5-2.5-2.5
			H187.648z"/>
		<path d="M92.03,60.95c-0.17,1.42-0.25,2.87-0.25,4.33c0,20.313,16.526,36.22,36.219,36.22c0,0,0,0,0,0s0,0,0,0
			c19.616,0,36.22-15.85,36.22-36.22c0-20.063-16.226-36.24-36.22-36.24c-10.53,0-20.53,4.57-27.41,12.55
			c-0.891,1.013-0.815,2.604,0.25,3.52c1.01,0.87,2.66,0.75,3.53-0.25v-0.01c5.95-6.87,14.56-10.81,23.63-10.81
			c17.19,0.03,31.19,14.04,31.22,31.24c0,7.613-2.753,14.849-7.678,20.498c-1.37-7.542-7.01-13.597-14.322-15.58
			c1.777-2.102,2.853-4.813,2.853-7.774v-7.07c2.94-3.704,3.806-8.985,1.424-13.906c-0.616-1.271-2.158-1.776-3.407-1.127
			l-4.126,2.154c-0.7,0.365-1.487,0.558-2.277,0.558h-8.269c-4.336,0-7.483,3.48-7.483,8.275v11.116c0,2.959,1.085,5.668,2.86,7.77
			c-7.322,1.979-12.971,8.041-14.339,15.591c-4.927-5.649-7.676-12.888-7.676-20.504c0-1.26,0.07-2.52,0.22-3.74
			c0.16-1.37-0.82-2.62-2.19-2.78C93.46,58.6,92.19,59.59,92.03,60.95z M120.945,56.942h14.128v5.481
			c0,3.895-3.169,7.064-7.064,7.064s-7.064-3.169-7.064-7.064V56.942z M120.935,51.308c0-1.511,0.65-3.275,2.483-3.275h8.269
			c1.592,0,3.18-0.389,4.591-1.125l1.521-0.794c0.299,2.032-0.195,4.139-1.409,5.829h-15.454V51.308z M109.121,89.325
			c0-8.182,6.656-14.838,14.838-14.838h8.08c8.182,0,14.838,6.656,14.838,14.838v0.81c-0.019,0.015-0.038,0.031-0.058,0.045
			c-5.412,4.082-12.046,6.319-18.82,6.319c0,0-0.001,0-0.001,0c-6.796,0-13.454-2.251-18.877-6.359V89.325z"/>
		<path d="M96.14,53.92c1.202,0.563,2.719,0.014,3.29-1.27c0.566-1.279-0.017-2.746-1.27-3.3c-1.23-0.54-2.76,0.05-3.3,1.28
			C94.288,51.922,94.892,53.376,96.14,53.92z"/>
		<path d="M93.875,114.25h68.25c1.381,0,2.5-1.119,2.5-2.5s-1.119-2.5-2.5-2.5h-68.25c-1.381,0-2.5,1.119-2.5,2.5
			S92.494,114.25,93.875,114.25z"/>
	</g>
</g>
</svg>
