<?xml version="1.0" encoding="utf-8"?>
<!-- Generator: Adobe Illustrator 21.0.0, SVG Export Plug-In . SVG Version: 6.00 Build 0)  -->
<svg version="1.1" id="Layer_1" xmlns="http://www.w3.org/2000/svg" xmlns:xlink="http://www.w3.org/1999/xlink" x="0px" y="0px"
	 viewBox="0 0 512 512" style="enable-background:new 0 0 512 512;" xml:space="preserve">
<style type="text/css">
	.st0{fill:#71CCE0;}
	.st1{fill:#DFDFDF;}
	.st2{fill:#4A555F;}
	.st3{fill:#FFD452;}
	.st4{fill:#F58E6F;}
	.st5{fill:#FFFFFF;}
	.st6{fill:none;}
</style>
<g>
	<g>
		<g>
			<g>
				<path class="st4" d="M433.641,75.795c-78.536,0-167.106-62.973-167.969-63.601l-11.623-8.545l-11.623,8.545
					c-0.862,0.627-85.513,63.601-164.068,63.601h-19.6v256.697l0.177,1.294c0.196,1.43,4.998,35.396,31.634,73.675
					c24.088,34.633,71.597,80.182,161.089,100.546l4.351,0.98l4.351-0.98c89.492-20.364,136.982-65.913,161.07-100.546
					c26.636-38.278,31.457-72.244,31.634-73.675l0.176-1.294V75.795H433.641z M433.641,315.685c0,15.159-2.812,30.204-8.514,44.25
					c-15.488,38.152-57.735,103.629-169.117,128.962c-111.378-25.332-153.635-90.806-169.131-128.958
					c-5.706-14.05-8.52-29.1-8.52-44.265V95.395c86.18,0,175.691-67.423,175.691-67.423s93.431,67.423,179.591,67.423V315.685z"/>
			</g>
		</g>
	</g>
	<g>
		<g>
			<g>
				<path class="st2" d="M433.64,72.855c-76.999,0-165.369-62.409-166.226-63.03L254.049,0l-13.425,9.87
					c-3.492,2.573-86.411,62.986-162.266,62.986h-22.54v245.677c0,13.004,2.006,25.687,5.961,37.697
					c4.282,12.999,12.334,32.73,26.376,52.91c24.379,35.053,72.422,81.157,162.857,101.735l4.997,1.125l5.004-1.127
					c90.405-20.572,138.447-66.678,162.831-101.732c10.818-15.548,19.372-32.171,25.425-49.408
					c4.466-12.717,6.735-26.159,6.744-39.952l0.168-246.925H433.64z M450.133,319.776c-0.009,13.129-2.166,25.917-6.411,38.008
					c-5.878,16.736-14.19,32.886-24.705,47.998c-23.789,34.202-70.74,79.203-159.302,99.356l-3.706,0.834l-3.698-0.833
					c-88.593-20.159-135.543-65.158-159.328-99.359c-13.638-19.599-21.459-38.765-25.618-51.392
					c-3.76-11.415-5.667-23.479-5.667-35.857V78.735h16.66c32.786,0,70.29-10.551,111.468-31.36
					c30.303-15.313,51.92-31.029,54.342-32.812l9.881-7.265l9.893,7.272c0.881,0.642,90.348,64.165,169.698,64.165h16.658
					L450.133,319.776z"/>
			</g>
		</g>
	</g>
	<g>
		<g>
			<g>
				<path class="st2" d="M433.64,92.455c-43.907,0-89.877-18.141-120.709-33.36c-33.539-16.556-56.93-33.339-57.162-33.506
					l-1.757-1.268l-1.731,1.303c-0.887,0.669-89.701,66.831-173.923,66.831h-2.94v223.219c0,15.831,2.939,31.096,8.737,45.371
					c15.339,37.766,57.978,104.967,171.203,130.718l0.652,0.148l0.652-0.148c113.232-25.753,155.858-92.956,171.189-130.721
					c5.794-14.269,8.731-29.529,8.731-45.357V92.455H433.64z M430.7,315.685c0,15.066-2.792,29.582-8.298,43.144
					c-34.555,85.123-118.786,116.117-166.393,127.052c-47.605-10.934-131.834-41.928-166.407-127.049
					c-5.51-13.569-8.304-28.089-8.304-43.158V98.309c78.68-1.379,159.986-57.524,172.787-66.724
					c13.164,9.087,97.803,65.344,176.616,66.724V315.685z"/>
			</g>
		</g>
	</g>
	<g>
		<g>
			<g>
				<path class="st2" d="M370.404,265.734c3.955-3.315,6.473-8.29,6.473-13.842v-7.854c0-7.509-4.606-13.962-11.142-16.683
					c3.764-3.311,6.141-8.161,6.141-13.557v-7.854c0-8.072-5.325-14.926-12.646-17.231c1.956-2.381,3.131-5.427,3.131-8.742v-5.638
					c0-7.605-6.187-13.792-13.792-13.792H245.798l-38.194,19.974v114.498l20.982,16.579c15.236,12.039,23.973,30.08,23.973,49.497
					v22.249c0,7.814,6.357,14.171,14.171,14.171c5.655,0,10.761-3.354,13.007-8.545c12.564-29.042,16.49-55.823,11.964-81.744
					h71.137c9.958,0,18.059-8.101,18.059-18.06v-7.027C380.896,274.873,376.593,268.602,370.404,265.734z M375.017,289.159
					c0,6.716-5.464,12.18-12.179,12.18h-78.289l0.723,3.53c5.286,25.799,1.71,52.543-10.929,81.76c-1.315,3.038-4.302,5-7.611,5
					c-4.572,0-8.292-3.72-8.292-8.292v-22.249c0-21.227-9.552-40.949-26.207-54.11l-18.749-14.814v-108.09l33.76-17.654h101.327
					c4.363,0,7.913,3.55,7.913,7.913v5.638c0,4.364-3.55,7.913-7.913,7.913h-2.273v5.88h7.52c6.716,0,12.18,5.463,12.18,12.18v7.854
					c0,6.716-5.464,12.18-12.18,12.18h-2.52v5.88h7.52c6.716,0,12.18,5.464,12.18,12.18v7.854c0,6.716-5.464,12.18-12.18,12.18
					h-0.97v5.88h4.991c6.715,0,12.179,5.464,12.179,12.18V289.159z"/>
			</g>
		</g>
	</g>
	<g>
		<g>
			<path class="st1" d="M362.837,276.811h-1.31c-4.803,0-8.918-3.439-9.771-8.166l-0.023-0.125
				c-0.967-5.363,2.624-10.485,7.995-11.403c2.546-0.435,4.408-2.643,4.408-5.226v-7.854c0-2.938-2.382-5.32-5.32-5.32h-4.154
				c-4.745,0-8.811-3.392-9.662-8.06c-1.059-5.806,3.205-11.228,9.141-11.57c2.804-0.162,4.994-2.482,4.994-5.291v-7.854
				c0-2.939-2.382-5.321-5.321-5.321h-1.282c-4.844,0-8.77-3.927-8.77-8.77c0,0,0-3.48,0-3.481c0-1.887,0.665-3.71,1.82-5.195
				c1.239-1.594,3.759-2.027,3.759-5.564c0-3.632-4.045-4.331-6.41-4.331h-94.004l-28.585,14.948v100.614l16.143,12.755
				c18.198,14.379,28.813,36.297,28.813,59.49v22.249c0,0.789,0.643,1.431,1.432,1.431c0.572,0,1.087-0.34,1.317-0.867
				c12.06-27.88,15.496-53.282,10.502-77.656l-2.41-11.766h86.698c2.938,0,5.319-2.381,5.319-5.319v-7.028
				C368.157,279.193,365.775,276.811,362.837,276.811z"/>
		</g>
	</g>
	<g>
		<g>
			<g>
				<path class="st2" d="M142.074,164.421v149.434h71.409V164.421H142.074z M207.603,307.975h-59.65V170.301h59.65V307.975z"/>
			</g>
		</g>
	</g>
	<g>
		<g>
			<rect x="154.814" y="177.161" class="st3" width="45.93" height="123.954"/>
		</g>
	</g>
	<g>
		<g>
			<g>
				<path class="st2" d="M177.779,267.576c-8.246,0-14.953,6.708-14.953,14.952c0,8.246,6.708,14.953,14.953,14.953
					c8.245,0,14.952-6.708,14.952-14.953C192.731,274.284,186.024,267.576,177.779,267.576z M177.779,291.602
					c-5.003,0-9.073-4.07-9.073-9.073c0-5.002,4.07-9.073,9.073-9.073c5.002,0,9.072,4.07,9.072,9.073
					C186.852,287.532,182.781,291.602,177.779,291.602z"/>
			</g>
		</g>
	</g>
	<g>
		<g>
			<g>
				<path class="st2" d="M131.618,395.6l-4.523,3.757c1.252,1.507,2.547,3.019,3.885,4.532l4.404-3.895
					C134.089,398.527,132.832,397.061,131.618,395.6z M135.012,408.299c1.346,1.428,2.733,2.854,4.162,4.278l4.152-4.163
					c-1.385-1.382-2.731-2.766-4.038-4.15L135.012,408.299z M104.275,350.292c-0.581-1.432-1.128-2.878-1.642-4.334l-5.546,1.954
					c0.544,1.542,1.124,3.073,1.742,4.595l0.429,1.045l5.428-2.262L104.275,350.292z M147.491,412.436l-4.021,4.289l1.278,1.187
					c1.032,0.948,2.078,1.89,3.139,2.827l3.891-4.408c-1.031-0.91-2.048-1.827-3.049-2.747L147.491,412.436z M152.414,424.62
					c1.517,1.264,3.062,2.515,4.633,3.751l3.637-4.62c-1.528-1.202-3.03-2.418-4.507-3.648L152.414,424.62z M106.994,356.59
					l-5.348,2.446c0.796,1.741,1.656,3.541,2.582,5.395l5.26-2.628C108.593,360.012,107.763,358.271,106.994,356.59z
					 M112.161,366.927l-5.166,2.806c0.924,1.702,1.904,3.438,2.941,5.205l5.07-2.978
					C114.004,370.253,113.056,368.573,112.161,366.927z M124.516,386.469l-4.756,3.458c1.151,1.582,2.349,3.175,3.594,4.775
					l4.641-3.612C126.788,389.542,125.629,388.001,124.516,386.469z M118.016,376.898l-4.969,3.143
					c1.041,1.647,2.132,3.313,3.275,4.997l4.865-3.302C120.082,380.106,119.025,378.492,118.016,376.898z M237.393,464.098
					l-1.803,5.597c1.309,0.422,2.624,0.834,3.945,1.236c0.605,0.185,1.213,0.359,1.824,0.522l1.514-5.681
					c-0.544-0.146-1.085-0.301-1.623-0.464C239.96,464.913,238.674,464.51,237.393,464.098z M213.32,461.396
					c1.819,0.773,3.651,1.528,5.496,2.263l2.176-5.463c-1.803-0.718-3.595-1.456-5.372-2.212L213.32,461.396z M224.362,465.797
					c1.852,0.69,3.716,1.36,5.591,2.012l1.929-5.555c-1.835-0.636-3.657-1.293-5.468-1.968L224.362,465.797z M161.776,431.994
					c1.583,1.18,3.191,2.347,4.821,3.497l3.39-4.804c-1.589-1.122-3.154-2.258-4.697-3.407L161.776,431.994z M99.476,334.993
					l-5.736,1.296c0.444,1.963,0.949,3.934,1.504,5.861l5.65-1.627C100.372,338.705,99.894,336.845,99.476,334.993z
					 M202.489,456.499c1.781,0.854,3.577,1.692,5.388,2.509l2.421-5.357c-1.769-0.8-3.525-1.618-5.266-2.454L202.489,456.499z
					 M191.893,451.111c1.739,0.936,3.495,1.855,5.266,2.755l2.664-5.242c-1.731-0.88-3.447-1.777-5.146-2.691L191.893,451.111z
					 M171.505,438.862c1.641,1.099,3.305,2.181,4.989,3.248l3.147-4.967c-1.642-1.04-3.265-2.098-4.866-3.169L171.505,438.862z
					 M181.556,445.234c1.693,1.016,3.404,2.016,5.133,3l2.907-5.111c-1.689-0.961-3.362-1.938-5.015-2.93L181.556,445.234z
					 M96.978,112.392h-5.88v5.88h5.88V112.392z M96.978,159.431h-5.88v5.88h5.88V159.431z M96.978,182.95h-5.88v5.88h5.88V182.95z
					 M96.978,171.19h-5.88v5.88h5.88V171.19z M96.978,194.71h-5.88v5.88h5.88V194.71z M247.433,472.718
					c2.05,0.307,4.132,0.498,6.189,0.566l0.197-5.876c-1.832-0.062-3.687-0.232-5.515-0.505L247.433,472.718z M96.978,124.151h-5.88
					v5.88h5.88V124.151z M97.597,323.728l-5.845,0.637c0.218,1.996,0.496,4.012,0.826,5.99l5.799-0.968
					C98.065,327.519,97.802,325.614,97.597,323.728z M96.978,147.671h-5.88v5.88h5.88V147.671z M96.978,135.911h-5.88v5.88h5.88
					V135.911z M96.978,206.47h-5.88v5.88h5.88V206.47z M96.978,277.028h-5.88v5.88h5.88V277.028z M96.978,288.788h-5.88v5.88h5.88
					V288.788z M96.978,300.548h-5.88v5.88h5.88V300.548z M96.978,312.308h-5.88c0,2.021,0.055,4.052,0.164,6.038l5.87-0.32
					C97.03,316.146,96.978,314.223,96.978,312.308z M96.978,241.749h-5.88v5.88h5.88V241.749z M96.978,229.989h-5.88v5.88h5.88
					V229.989z M96.978,218.229h-5.88v5.88h5.88V218.229z M96.978,253.509h-5.88v5.88h5.88V253.509z M96.978,265.269h-5.88v5.88h5.88
					V265.269z M313.362,447.799l2.676,5.235c1.776-0.908,3.533-1.834,5.27-2.777l-2.808-5.166
					C316.807,446.011,315.094,446.913,313.362,447.799z M411.919,232.583h5.88v-5.88h-5.88V232.583z M411.919,256.102h5.88v-5.88
					h-5.88V256.102z M411.919,244.343h5.88v-5.88h-5.88V244.343z M411.919,209.063h5.88v-5.88h-5.88V209.063z M411.919,220.823h5.88
					v-5.88h-5.88V220.823z M411.919,291.382h5.88v-5.88h-5.88V291.382z M411.919,267.862h5.88v-5.88h-5.88V267.862z
					 M411.919,303.142h5.88v-5.88h-5.88V303.142z M411.919,279.622h5.88v-5.88h-5.88V279.622z M411.919,173.784h5.88v-5.88h-5.88
					V173.784z M411.919,150.265h5.88v-5.88h-5.88V150.265z M411.919,197.303h5.88v-5.88h-5.88V197.303z M411.919,138.506h5.88v-5.88
					h-5.88V138.506z M259.354,467.273l0.482,5.861c2.046-0.168,4.116-0.459,6.152-0.863l-1.145-5.767
					C263.026,466.864,261.179,467.123,259.354,467.273z M411.919,126.746h5.88v-5.88h-5.88V126.746z M411.919,162.024h5.88v-5.879
					h-5.88V162.024z M411.919,185.544h5.88v-5.88h-5.88V185.544z M411.919,310.334c0,1.45-0.029,2.939-0.087,4.456l5.876,0.224
					c0.06-1.593,0.091-3.157,0.091-4.68v-1.313h-5.88V310.334z M411.919,109.106v5.88h5.88v-5.88H411.919z M343.017,429.612
					l3.47,4.747c1.611-1.178,3.199-2.374,4.766-3.591l-3.608-4.644C346.124,427.306,344.582,428.468,343.017,429.612z
					 M333.467,436.194l3.204,4.93c1.672-1.086,3.324-2.191,4.954-3.314l-3.336-4.843
					C336.703,434.061,335.095,435.136,333.467,436.194z M352.171,422.506l3.74,4.538c1.539-1.269,3.055-2.555,4.549-3.862
					l-3.872-4.425C355.137,420.025,353.666,421.275,352.171,422.506z M323.568,442.254l2.938,5.093
					c1.727-0.996,3.434-2.01,5.122-3.042l-3.066-5.017C326.915,440.294,325.251,441.282,323.568,442.254z M292.196,457.392
					l2.182,5.46c1.849-0.74,3.68-1.495,5.494-2.266l-2.299-5.411C295.797,455.929,294.004,456.668,292.196,457.392z
					 M270.244,465.112l1.725,5.622c1.903-0.584,3.79-1.184,5.661-1.799l-1.839-5.585
					C273.957,463.953,272.108,464.54,270.244,465.112z M281.302,461.476l1.948,5.547c1.878-0.659,3.74-1.335,5.586-2.028
					l-2.065-5.505C284.964,460.168,283.141,460.831,281.302,461.476z M302.893,452.839l2.425,5.355
					c1.815-0.821,3.613-1.66,5.391-2.516l-2.551-5.298C306.422,451.217,304.667,452.035,302.893,452.839z M360.888,414.879
					l4.004,4.307c1.477-1.373,2.912-2.75,4.308-4.13l-4.132-4.182C363.714,412.211,362.321,413.548,360.888,414.879z
					 M396.396,369.507l5.154,2.829c0.991-1.804,1.919-3.57,2.788-5.292l-5.248-2.649
					C398.25,366.058,397.352,367.765,396.396,369.507z M401.608,359.194l5.336,2.467c0.878-1.899,1.681-3.727,2.416-5.476
					l-5.422-2.276C403.23,355.597,402.455,357.362,401.608,359.194z M405.98,348.609l5.564,1.901
					c0.627-1.834,1.222-3.788,1.769-5.807l-5.675-1.537C407.123,345.062,406.565,346.894,405.98,348.609z M410.891,326.259
					l5.836,0.725c0.249-2.003,0.455-3.999,0.617-5.972l-5.861-0.482C411.328,322.422,411.13,324.338,410.891,326.259z
					 M408.984,337.603l5.748,1.235c0.412-1.915,0.791-3.903,1.128-5.907l-5.799-0.974
					C409.739,333.874,409.376,335.773,408.984,337.603z M376.824,398.105l4.509,3.774c1.299-1.552,2.552-3.1,3.761-4.643
					l-4.628-3.627C379.296,395.103,378.083,396.603,376.824,398.105z M369.12,406.741l4.263,4.05
					c1.391-1.463,2.739-2.928,4.045-4.393l-4.387-3.914C371.775,403.903,370.469,405.322,369.12,406.741z M390.499,379.457
					l4.957,3.162c1.097-1.719,2.14-3.417,3.13-5.089l-5.057-2.999C392.57,376.148,391.561,377.792,390.499,379.457z M383.964,389
					l4.741,3.478c1.201-1.636,2.352-3.263,3.457-4.876l-4.852-3.321C386.241,385.842,385.126,387.415,383.964,389z"/>
			</g>
		</g>
	</g>
	<g>
		<g>
			<g>
				<path class="st2" d="M298,81.42c1.757,0.839,3.545,1.678,5.359,2.518l2.467-5.338c-1.793-0.828-3.558-1.657-5.292-2.485
					L298,81.42z M308.754,86.386c1.784,0.795,3.593,1.588,5.424,2.376l2.324-5.401c-1.807-0.777-3.593-1.56-5.354-2.346
					L308.754,86.386z M319.635,91.063c1.811,0.75,3.641,1.494,5.488,2.229l2.174-5.463c-1.823-0.725-3.628-1.459-5.412-2.198
					L319.635,91.063z M287.38,76.171c1.725,0.882,3.49,1.769,5.293,2.66l2.605-5.271c-1.778-0.879-3.52-1.755-5.222-2.625
					L287.38,76.171z M256.467,58.492c1.548,1.013,3.228,2.083,5.032,3.199l3.093-5.001c-1.758-1.087-3.396-2.128-4.904-3.117
					L256.467,58.492z M266.586,64.767c1.637,0.967,3.351,1.96,5.136,2.974l2.904-5.112c-1.755-0.997-3.44-1.973-5.048-2.925
					L266.586,64.767z M276.902,70.629c1.688,0.925,3.43,1.862,5.221,2.809l2.747-5.198c-1.765-0.933-3.48-1.855-5.143-2.767
					L276.902,70.629z M387.504,112.075c1.95,0.379,3.905,0.736,5.859,1.071l0.993-5.796c-1.912-0.327-3.822-0.677-5.731-1.048
					L387.504,112.075z M375.881,109.562c1.927,0.458,3.859,0.896,5.796,1.315l1.244-5.746c-1.899-0.411-3.794-0.842-5.683-1.29
					L375.881,109.562z M364.387,106.604c1.903,0.526,3.813,1.037,5.728,1.532l1.47-5.694c-1.882-0.485-3.758-0.987-5.628-1.505
					L364.387,106.604z M330.643,95.447c1.835,0.7,3.685,1.392,5.552,2.075l2.017-5.524c-1.839-0.671-3.663-1.353-5.471-2.044
					L330.643,95.447z M400.107,108.264l-0.856,5.817c1.972,0.29,3.944,0.555,5.913,0.794l0.71-5.838
					C403.953,108.805,402.029,108.546,400.107,108.264z M353.028,103.246c1.878,0.59,3.765,1.166,5.661,1.727l1.669-5.639
					c-1.865-0.552-3.722-1.119-5.569-1.699L353.028,103.246z M341.773,99.515c1.859,0.648,3.729,1.284,5.613,1.909l1.851-5.582
					c-1.855-0.615-3.697-1.242-5.527-1.88L341.773,99.515z"/>
			</g>
		</g>
	</g>
	<g>
		<g>
			<g>
				<path class="st2" d="M148.552,101.674l1.742,5.616c1.89-0.587,3.772-1.189,5.641-1.807l-1.847-5.583
					C152.253,100.506,150.407,101.099,148.552,101.674z M170.537,93.959l2.138,5.478c1.852-0.723,3.688-1.458,5.507-2.202
					l-2.228-5.441C174.164,92.527,172.359,93.249,170.537,93.959z M159.604,98.017l1.948,5.549c1.874-0.657,3.734-1.331,5.581-2.016
					l-2.046-5.512C163.273,96.711,161.445,97.371,159.604,98.017z M126.087,107.624l1.25,5.746c1.937-0.421,3.87-0.867,5.796-1.333
					l-1.385-5.715C129.867,106.778,127.98,107.212,126.087,107.624z M103.188,111.41l0.641,5.845
					c1.975-0.217,3.949-0.462,5.92-0.736l-0.808-5.824C107.025,110.961,105.107,111.199,103.188,111.41z M114.678,109.818l0.965,5.8
					c1.958-0.325,3.913-0.676,5.863-1.051l-1.11-5.775C118.494,109.158,116.589,109.5,114.678,109.818z M137.383,104.891
					l1.506,5.683c1.916-0.507,3.823-1.036,5.722-1.584l-1.629-5.65C141.124,103.875,139.256,104.393,137.383,104.891z
					 M202.535,79.729l2.622,5.262c1.79-0.891,3.552-1.783,5.283-2.674l-2.689-5.229C206.041,77.967,204.302,78.847,202.535,79.729z
					 M181.34,89.54l2.31,5.407c1.831-0.782,3.642-1.574,5.433-2.373l-2.394-5.371C184.925,87.991,183.142,88.77,181.34,89.54z
					 M233.29,62.88l3.024,5.043c1.755-1.053,3.443-2.08,5.06-3.076l-3.085-5.005C236.691,60.827,235.024,61.84,233.29,62.88z
					 M248.157,53.573c-1.524,0.998-3.163,2.056-4.912,3.167l3.152,4.963c1.774-1.126,3.437-2.2,4.981-3.212L248.157,53.573z
					 M223.183,68.76l2.89,5.12c1.762-0.993,3.476-1.977,5.139-2.946l-2.957-5.082C226.613,66.807,224.922,67.778,223.183,68.76z
					 M192.006,84.789l2.471,5.334c1.811-0.838,3.597-1.681,5.359-2.528l-2.548-5.3C195.552,83.13,193.79,83.962,192.006,84.789z
					 M212.93,74.378l2.76,5.193c1.773-0.944,3.511-1.881,5.211-2.812l-2.825-5.156C216.397,72.521,214.682,73.448,212.93,74.378z"/>
			</g>
		</g>
	</g>
</g>
</svg>
