<?xml version="1.0" encoding="utf-8"?>
<!-- Generator: Adobe Illustrator 21.0.0, SVG Export Plug-In . SVG Version: 6.00 Build 0)  -->
<svg version="1.1" id="Layer_1" xmlns="http://www.w3.org/2000/svg" xmlns:xlink="http://www.w3.org/1999/xlink" x="0px" y="0px"
	 viewBox="0 0 512 512" style="enable-background:new 0 0 512 512;" xml:space="preserve">
<style type="text/css">
	.st0{fill:#E85558;}
	.st1{fill:#FFFFFF;}
	.st2{fill:#75B4E2;}
	.st3{fill:#FBC749;}
	.st4{fill:#17171D;}
</style>
<g id="Patent_Rejected">
	<g>
		<path class="st0" d="M141.2,110.7h61.1V87h-72.9c-6.5,0-11.8,5.3-11.8,11.8v314.3c0,6.5,5.3,11.8,11.8,11.8h46.8v-23.7h-34.9
			V110.7z"/>
		<path class="st1" d="M158.7,340.1c0-22.4,18.2-40.6,40.6-40.6s40.6,18.2,40.6,40.6c0,13.8-6.9,26-17.5,33.3v16.6h111v-91.5
			c-5.5-6.9-8.7-15.6-8.7-25.1s3.3-18.2,8.7-25.1V121.9H152.5v268.1h23.7v-16.6C165.6,366.1,158.7,353.9,158.7,340.1z M321.5,331.5
			h-70.1v-11.3h70.1V331.5z M207.8,145.6H278v11.3h-70.1V145.6z M164.3,180.5h157.2v11.3H164.3V180.5z M164.3,215.4h157.2v11.3
			H164.3V215.4z M164.3,250.4h157.2v11.3H164.3V250.4z"/>
		<polygon class="st0" points="181.1,425 217.4,425 199.3,406.8 		"/>
		<path class="st0" d="M344.6,238.5c6-3.6,13.1-5.6,20.6-5.6c1,0,2.1,0.1,3.1,0.1V98.8c0-6.5-5.3-11.8-11.8-11.8h-73.1v23.7h61.3
			V238.5z"/>
		<rect x="213.6" y="87" class="st2" width="58.4" height="23.7"/>
		<path class="st0" d="M344.6,308.4v92.9H222.3V425h134.1c6.5,0,11.8-5.3,11.8-11.8v-99.3c-1,0.1-2.1,0.1-3.1,0.1
			C357.6,314,350.6,312,344.6,308.4z"/>
		<path class="st0" d="M365.1,244.2c-16.1,0-29.3,13.1-29.3,29.3c0,16.1,13.1,29.3,29.3,29.3c16.1,0,29.3-13.1,29.3-29.3
			C394.4,257.3,381.3,244.2,365.1,244.2z M382.4,282.7l-8,8l-9.3-9.3l-9.3,9.3l-8-8l9.3-9.3l-9.3-9.3l8-8l9.3,9.3l9.3-9.3l8,8
			l-9.3,9.3L382.4,282.7z"/>
		<path class="st3" d="M211.1,402.7v-23.8c-3.7,1.1-7.7,1.8-11.8,1.8c-4.1,0-8.1-0.6-11.8-1.8v23.8l11.8-11.8L211.1,402.7z"/>
		<path class="st2" d="M199.3,310.8c-16.2,0-29.3,13.1-29.3,29.3s13.1,29.3,29.3,29.3s29.3-13.1,29.3-29.3S215.4,310.8,199.3,310.8z
			"/>
		<rect x="207.8" y="145.6" class="st4" width="70.1" height="11.3"/>
		<rect x="164.3" y="180.5" class="st4" width="157.2" height="11.3"/>
		<rect x="164.3" y="215.4" class="st4" width="157.2" height="11.3"/>
		<rect x="164.3" y="250.4" class="st4" width="157.2" height="11.3"/>
		<rect x="251.3" y="320.2" class="st4" width="70.1" height="11.3"/>
		<path class="st4" d="M379.5,235.5V98.8c0-12.7-10.4-23.1-23.1-23.1h-73.1h-81h-72.9c-12.7,0-23.1,10.4-23.1,23.1v314.3
			c0,12.7,10.4,23.1,23.1,23.1h227c12.7,0,23.1-10.4,23.1-23.1V311.4c15.3-5.8,26.2-20.6,26.2-37.9
			C405.7,256.2,394.8,241.4,379.5,235.5z M283.3,87h73.1c6.5,0,11.8,5.3,11.8,11.8V233c-1-0.1-2.1-0.1-3.1-0.1
			c-7.5,0-14.5,2.1-20.6,5.6V110.7h-61.3V87z M213.6,87H272v23.7h-58.4V87z M176.2,425h-46.8c-6.5,0-11.8-5.3-11.8-11.8V98.8
			c0-6.5,5.3-11.8,11.8-11.8h72.9v23.7h-61.1v290.6h34.9V425z M176.2,390.1h-23.7V121.9h180.8v126.4c-5.5,6.9-8.7,15.6-8.7,25.1
			s3.3,18.2,8.7,25.1v91.5h-111v-16.6c10.5-7.3,17.5-19.5,17.5-33.3c0-22.4-18.2-40.6-40.6-40.6s-40.6,18.2-40.6,40.6
			c0,13.8,6.9,26,17.5,33.3V390.1z M181.1,425l18.1-18.1l18.1,18.1H181.1z M187.4,402.7v-23.8c3.7,1.1,7.7,1.8,11.8,1.8
			c4.1,0,8.1-0.6,11.8-1.8v23.8l-11.8-11.8L187.4,402.7z M199.3,369.4c-16.2,0-29.3-13.1-29.3-29.3s13.1-29.3,29.3-29.3
			s29.3,13.1,29.3,29.3S215.4,369.4,199.3,369.4z M368.2,413.2c0,6.5-5.3,11.8-11.8,11.8H222.3v-23.7h122.2v-92.9
			c6,3.6,13.1,5.6,20.6,5.6c1,0,2.1-0.1,3.1-0.1V413.2z M365.1,302.8c-16.1,0-29.3-13.1-29.3-29.3c0-16.1,13.1-29.3,29.3-29.3
			c16.1,0,29.3,13.1,29.3,29.3C394.4,289.6,381.3,302.8,365.1,302.8z"/>
		<polygon class="st4" points="374.4,256.2 365.1,265.5 355.9,256.2 347.9,264.2 357.2,273.5 347.9,282.7 355.9,290.7 365.1,281.4 
			374.4,290.7 382.4,282.7 373.1,273.5 382.4,264.2 		"/>
	</g>
</g>
</svg>
