<?xml version="1.0" encoding="UTF-8"?>
<!DOCTYPE svg PUBLIC "-//W3C//DTD SVG 1.1//EN" "http://www.w3.org/Graphics/SVG/1.1/DTD/svg11.dtd">
<!-- Creator: CorelDRAW -->
<svg xmlns="http://www.w3.org/2000/svg" xml:space="preserve" width="2048px" height="2048px" style="shape-rendering:geometricPrecision; text-rendering:geometricPrecision; image-rendering:optimizeQuality; fill-rule:evenodd; clip-rule:evenodd"
viewBox="0 0 2048 2048"
 xmlns:xlink="http://www.w3.org/1999/xlink">
 <defs>
  <style type="text/css">
   <![CDATA[
    .fil41 {fill:none}
    .fil37 {fill:#181818}
    .fil22 {fill:#202020}
    .fil10 {fill:#2F2F2F}
    .fil25 {fill:#3C3C3C}
    .fil24 {fill:#414141}
    .fil9 {fill:#444444}
    .fil40 {fill:#4B4B4B}
    .fil19 {fill:#4D4D4D}
    .fil18 {fill:#515151}
    .fil30 {fill:#555555}
    .fil17 {fill:#5C5C5C}
    .fil23 {fill:#616161}
    .fil27 {fill:#636364}
    .fil12 {fill:#656666}
    .fil21 {fill:#6A6A6A}
    .fil34 {fill:#6B6B6B}
    .fil13 {fill:#6C6C6C}
    .fil29 {fill:#727272}
    .fil31 {fill:#757575}
    .fil36 {fill:#797979}
    .fil7 {fill:#888888}
    .fil15 {fill:#8C8D8D}
    .fil11 {fill:#8E8E8F}
    .fil35 {fill:#939393}
    .fil33 {fill:#A5A5A6}
    .fil14 {fill:#AEAEAF}
    .fil6 {fill:#B1B1B1}
    .fil3 {fill:#BABABB}
    .fil20 {fill:#BEBEBE}
    .fil39 {fill:#BFBFBF}
    .fil2 {fill:#C5C5C5}
    .fil5 {fill:#C6C6C7}
    .fil32 {fill:#CACACA}
    .fil4 {fill:#D1D1D1}
    .fil38 {fill:#D6D6D6}
    .fil1 {fill:#DCDDDD}
    .fil0 {fill:#DDDDDE}
    .fil28 {fill:#E1E1E2}
    .fil26 {fill:white}
    .fil16 {fill:#414141;fill-rule:nonzero}
    .fil8 {fill:#9D9D9D;fill-rule:nonzero}
   ]]>
  </style>
 </defs>
 <g id="Layer_x0020_1">
  <metadata id="CorelCorpID_0Corel-Layer"/>
  <g id="_575026936">
   <g>
    <path id="_500568584" class="fil0" d="M844.492 869.332c21.0272,-17.3799 10.7457,-14.6575 3.96378,-28.3099 -6.78308,-13.6465 -7.19292,-20.5713 -20.8441,-13.7894l-122.537 54.5847c-18.3319,9.11103 -27.6366,21.3969 -18.5256,39.7323 9.10867,18.3331 26.6044,27.124 49.6961,16.702 28.6193,-12.9165 108.247,-68.9186 108.247,-68.9197z"/>
    <path id="_500567984" class="fil1" d="M834.229 865.215c2.19213,-1.48583 4.31457,-2.93032 6.34252,-4.31339 -0.00236221,0 -0.00236221,0 -0.00236221,0 -2.02914,1.38662 -4.14331,2.82402 -6.34016,4.31339l0 0zm20.615 -4.98307l0 0c0.31063,-0.132284 0.617717,-0.269292 0.923623,-0.412205 -0.304725,0.141732 -0.612993,0.279921 -0.923623,0.412205l0 0zm0.924804 -0.414567c0.0141732,-0.00472441 0.0259843,-0.00944883 0.0401575,-0.0177165 -0.0141732,0.00708662 -0.0259843,0.011811 -0.0401575,0.0177165l0 0zm0.0519685 -0.022441c0.00944883,-0.00472441 0.0200788,-0.00944883 0.0318898,-0.0141732 -0.011811,0.00354331 -0.0212599,0.00944883 -0.0318898,0.0141732l0 0zm0.0507874 -0.0236221c0.00590552,-0.00354331 0.0153543,-0.00590552 0.022441,-0.00826772 -0.00708662,0.0011811 -0.0141732,0.00354331 -0.022441,0.00944883l0 -0.0011811zm0.0484252 -0.0200788c0.00354331,-0.00590552 0.00944883,-0.00826772 0.0165354,-0.00944883 -0.00590552,0.00236221 -0.0129921,0.00354331 -0.0165354,0.00944883l0 0zm0.0496063 -0.0271654c0.0011811,0.0011811 0.00236221,0.0011811 0.00354331,0 -0.00236221,0.0011811 -0.0011811,0.0011811 -0.00472441,0.0011811l0.0011811 -0.0011811zm43.0985 -28.4941c0.858662,-0.679134 1.68425,-1.36536 2.47441,-2.05512l7.78465 -7.01575 -7.78465 7.01575c-0.790158,0.688583 -1.61575,1.37717 -2.47441,2.05512z"/>
    <g>
     <path id="_500568680" class="fil0" d="M849.772 814.75c2.44134,2.79567 6.68977,3.08622 9.4878,0.643701l21.202 -19.0264c2.79685,-2.44016 3.08504,-6.68504 0.641339,-9.4819 -2.44016,-2.79803 -6.68504,-3.08504 -9.48544,-0.646063l-16.6831 14.5665c-2.79803,2.44134 -7.60158,11.1461 -5.1626,13.9441z"/>
     <path id="_500568248" class="fil0" d="M873.602 850.349c2.50748,2.87126 6.86339,3.16418 9.73702,0.660237l21.6366 -19.4043c2.8689,-2.50512 3.16299,-6.86457 0.660237,-9.73347 -2.5063,-2.87008 -6.86457,-3.16299 -9.73583,-0.659056l-21.6354 19.402c-2.87126,2.50866 -3.16654,6.86339 -0.662599,9.73465z"/>
     <path id="_500568464" class="fil0" d="M858.96 825.273c2.62914,3.01299 7.21064,3.32362 10.2236,0.694489l22.5 -20.1591c3.0189,-2.6315 3.32481,-7.20591 0.694489,-10.2201 -2.63386,-3.01654 -7.20945,-3.32953 -10.2248,-0.698032l-22.4988 20.1591c-3.01772,2.63032 -3.32481,7.20827 -0.694489,10.2236z"/>
     <path id="_500568656" class="fil0" d="M867.449 837.1c2.62914,3.01536 7.20709,3.32599 10.2224,0.694489l22.4988 -20.1567c3.01654,-2.6315 3.32717,-7.20945 0.694489,-10.2224 -2.6315,-3.0189 -7.20827,-3.32717 -10.2236,-0.69567l-22.5012 20.1555c-3.01299,2.63386 -3.32481,7.213 -0.690945,10.2248z"/>
     <path id="_500568488" class="fil0" d="M857.973 798.154c0,0 -15.1335,3.54803 -18.4725,5.40119 -14.9669,14.6705 -17.713,42.5091 -7.59213,54.0981 15.1524,17.3587 35.2453,7.72796 46.8355,-2.39055l7.18229 -6.47363 -27.9532 -50.6351z"/>
     <path id="_500568008" class="fil2" d="M896.702 820.745c0,0 -0.355512,0.245669 -0.949607,0.700394 -0.568111,0.486615 -1.48465,1.05473 -2.4874,1.83307 -0.501969,0.386221 -1.04646,0.804331 -1.62165,1.24843 -0.5563,0.459449 -1.18701,0.89882 -1.82599,1.37244 -1.28386,0.927166 -2.61732,1.96654 -3.95079,3 -1.28622,1.09606 -2.66221,2.0752 -3.93307,3.02599 -1.26614,0.951969 -2.43189,1.87087 -3.41221,2.68583 -1.96181,1.6311 -3.21614,2.82047 -3.21614,2.82047 0,0 1.53543,-0.754725 3.75473,-2.03386 1.10787,-0.64252 2.38347,-1.42205 3.72874,-2.2878 1.36181,-0.84567 2.76496,-1.81654 4.09252,-2.89607 1.32638,-1.07599 2.65866,-2.14488 3.86693,-3.19488 1.2378,-1.00748 2.26299,-2.13071 3.15827,-3.04252 1.79764,-1.83898 2.79567,-3.2315 2.79567,-3.2315z"/>
     <path id="_500568128" class="fil2" d="M891.159 806.112c0,0 -1.47992,0.759449 -3.56693,2.0752 -1.05118,0.646063 -2.23583,1.46221 -3.55158,2.25709 -1.30866,0.807875 -2.66575,1.71732 -4.02284,2.62323 -2.69646,1.84606 -5.31496,3.80197 -7.22363,5.35985 -1.91575,1.54725 -3.11693,2.70709 -3.11693,2.70709 0,0 1.50473,-0.689764 3.64843,-1.91457 2.15079,-1.21299 4.94528,-2.9563 7.66182,-4.80709 1.34764,-0.940158 2.69764,-1.87795 3.92717,-2.80276 1.25433,-0.897638 2.32795,-1.85079 3.25276,-2.66693 1.84843,-1.62992 2.99173,-2.8311 2.99173,-2.8311z"/>
     <path id="_500568560" class="fil2" d="M881.466 795.343c0,0 -1.4811,0.764174 -3.56693,2.07874 -1.05236,0.644882 -2.23819,1.46221 -3.55394,2.25591 -1.3063,0.807875 -2.66221,1.71851 -4.02284,2.62559 -2.69292,1.84606 -5.31378,3.79961 -7.22127,5.36103 -1.91811,1.54843 -3.11811,2.70591 -3.11811,2.70591 0,0 1.50354,-0.690945 3.64725,-1.91575 2.15315,-1.21417 4.94528,-2.9563 7.66418,-4.80827 1.34528,-0.94252 2.69528,-1.87677 3.92599,-2.80276 1.25433,-0.896457 2.32677,-1.85079 3.24922,-2.66693 1.84961,-1.62992 2.99646,-2.83347 2.99646,-2.83347z"/>
     <path id="_500567672" class="fil2" d="M857.973 798.154c0,0 -1.07126,0.530315 -2.55355,1.45158 -1.49291,0.911812 -3.39567,2.22992 -5.27363,3.56693 -0.921261,0.68504 -1.84725,1.37362 -2.71299,2.01614 -0.858662,0.650788 -1.66181,1.25669 -2.34921,1.77756 -0.67441,0.563386 -1.28386,0.902363 -1.69606,1.2248 -0.416929,0.312992 -0.656693,0.494882 -0.656693,0.494882 0,0 0.285827,-0.0578741 0.787796,-0.190158 0.486615,-0.151181 1.25787,-0.303544 2.03858,-0.703938 0.799607,-0.373229 1.76339,-0.797245 2.68583,-1.38662 0.948426,-0.559843 1.93347,-1.20354 2.87835,-1.88977 1.89685,-1.37008 3.64843,-2.91969 4.88741,-4.16811 1.24725,-1.2378 1.96536,-2.19213 1.96417,-2.19331z"/>
     <path id="_500567576" class="fil3" d="M875.305 837.432c0,0 1.35236,-0.66378 3.35433,-1.80473 0.12874,-0.0744095 0.263386,-0.15 0.400394,-0.229134 1.10787,-0.64252 2.38347,-1.42205 3.72874,-2.2878 0.124016,-0.0779528 0.250394,-0.155906 0.375591,-0.23504 1.24252,-0.787796 2.50984,-1.67953 3.71693,-2.66103 1.32638,-1.07599 2.65866,-2.14488 3.86693,-3.19488 1.2378,-1.00748 2.26299,-2.13071 3.15827,-3.04252 1.75866,-1.80118 2.75197,-3.17126 2.79331,-3.22677 0.00236221,-0.00472441 0.00236221,-0.00472441 0.00236221,-0.00472441 0,0 -0.355512,0.245669 -0.949607,0.700394 -0.568111,0.486615 -1.48465,1.05473 -2.4874,1.83307 -0.501969,0.386221 -1.04646,0.804331 -1.62165,1.24843 -0.5563,0.459449 -1.18701,0.89882 -1.82599,1.37244 -1.28386,0.927166 -2.61732,1.96654 -3.95079,3 -1.28622,1.09606 -2.66221,2.0752 -3.93307,3.02599 -1.26614,0.951969 -2.43189,1.87087 -3.41221,2.68583 -0.0992127,0.0814961 -0.194882,0.161811 -0.28937,0.240945 -1.79646,1.50591 -2.92677,2.57953 -2.92677,2.57953z"/>
     <path id="_500567384" class="fil4" d="M864.764 810.454l12.6685 -11.3669c-0.0011811,0.0011811 -0.00354331,0.00354331 -0.00708662,0.00590552l-12.5303 11.2417 -0.131102 0.119291zm15.248 -13.6819l0.45 -0.405118 -0.45 0.405118c0,0 0,0 0,0z"/>
     <path id="_500567744" class="fil5" d="M864.895 810.335l12.5303 -11.2417c-0.421654,0.361418 -0.871654,0.739371 -1.35118,1.11142l-11.1791 10.1303zm15.1169 -13.5626l0.45 -0.405118c0.231496,-0.201969 0.440552,-0.418111 0.634252,-0.647245 -0.246851,0.248032 -0.615355,0.61063 -1.08425,1.05236z"/>
     <path id="_500567240" class="fil6" d="M876.074 800.205c0.479528,-0.372048 0.929528,-0.748819 1.35118,-1.11142 0.00354331,-0.00236221 0.00590552,-0.00472441 0.00708662,-0.00590552l2.57953 -2.31496c0,0 0,0 0,0 0.468898,-0.442914 0.836221,-0.80315 1.08425,-1.05236 0.068504,-0.080315 0.135827,-0.162992 0.200788,-0.244488l0.168898 -0.132284 -0.127559 0.0897638 -5.26418 4.77166z"/>
    </g>
   </g>
   <rect id="_500567360" class="fil7" transform="matrix(0.563788 -0.238736 0.238736 0.563788 1073.53 931.303)" width="43.7504" height="156.251"/>
   <rect id="_500567216" class="fil7" transform="matrix(0.563788 -0.238736 0.238736 0.563788 1200.06 1230.11)" width="43.7504" height="156.251"/>
   <rect id="_500566544" class="fil7" transform="matrix(-0.238736 -0.563788 0.563788 -0.238736 1581.27 1406.12)" width="43.7504" height="156.251"/>
   <path id="_500566976" class="fil8" d="M1767.2 1338.58c10.4043,2.89134 21.1854,-3.19843 24.0768,-13.6028 2.89252,-10.4043 -3.19725,-21.1854 -13.6028,-24.0768l-60.4961 -16.9158 0.0106299 -0.0366142c-4.44922,-1.2437 -8.9693,-0.84567 -12.9154,0.827953l0 -0.0011811 -306.385 129.738c-9.96379,4.2189 -14.6209,15.7181 -10.402,25.6819 4.2189,9.96379 15.7181,14.6209 25.6819,10.402l300.128 -127.089 53.9044 15.0721zm-471.873 60.3178c4.2189,9.96379 15.7181,14.6209 25.6819,10.402 9.96379,-4.2189 14.6209,-15.7169 10.402,-25.6807l-223.265 -527.253c-26.0055,-61.4138 -55.0217,-86.5383 -95.4603,-89.6068 -37.0394,-2.80984 -79.6453,14.8217 -138.43,39.7134 -9.96261,4.2189 -14.6209,15.7169 -10.4008,25.6807 4.2189,9.96379 15.7169,14.6209 25.6807,10.402 53.7768,-22.7717 92.615,-38.9114 120.207,-36.8174 24.1937,1.83543 43.004,20.289 62.3209,65.9067l223.264 527.253z"/>
   <rect id="_500566952" class="fil9" transform="matrix(0.617956 -0.261673 0.233487 0.551392 840.037 819.046)" width="191.25" height="81.2505"/>
   <rect id="_500567072" class="fil10" transform="matrix(0.702156 -0.297328 0.297327 0.702156 947.952 757.069)" width="22.5" height="103.126" rx="8.57835" ry="8.57835"/>
   <path id="_500566616" class="fil11" d="M1168.38 901.344c177.841,-75.306 174.001,-73.6808 351.803,-148.97 9.96379,-4.22008 21.463,0.438189 25.6819,10.402l198.628 469.072c4.2189,9.96379 -0.43937,21.4618 -10.402,25.6807l-351.805 148.971c-9.96379,4.2189 -21.4618,-0.438189 -25.6819,-10.402l-198.627 -469.072c-4.22008,-9.96379 0.438189,-21.4618 10.402,-25.6819z"/>
   <polygon id="_500566880" class="fil12" points="1404.82,1308.42 1559.27,1243.02 1564.99,1256.53 1410.54,1321.93 "/>
   <polygon id="_500565824" class="fil12" points="1731.29,1213.8 1723.46,1195.31 1730.11,1192.49 1708.98,1179.62 1703.51,1203.75 1710.16,1200.94 1717.99,1219.43 "/>
   <polygon id="_500565872" class="fil12" points="1699.76,1227.16 1691.93,1208.66 1698.58,1205.84 1677.44,1192.98 1671.98,1217.11 1678.63,1214.29 1686.46,1232.79 "/>
   <polygon id="_500565992" class="fil12" points="1682.4,1241.95 1740.8,1217.22 1743.35,1223.25 1684.95,1247.98 "/>
   <polygon id="_500565776" class="fil12" points="1419.99,1344.25 1574.44,1278.84 1580.16,1292.35 1425.71,1357.75 "/>
   <polygon id="_500566112" class="fil13" points="1391.64,806.805 1296.92,846.912 1340.59,950.043 1340.89,950.756 1353.76,959.225 1356.64,944.033 1369.55,952.536 1372.43,937.345 1385.35,945.848 1388.23,930.655 1401.15,939.158 1404.03,923.966 1416.94,932.469 1419.82,917.277 1432.74,925.781 1435.61,910.648 1435.59,910.601 "/>
   <g>
    <path id="_500565272" class="fil10" d="M1270.86 1381.54c32.3799,-13.7114 67.2556,-12.9992 97.4646,-0.764174 30.2079,12.2362 55.7493,35.9941 69.4607,68.3752 13.7114,32.3799 12.9992,67.2556 0.764174,97.4646 -12.2362,30.2079 -35.9953,55.7493 -68.3752,69.4607 -32.3799,13.7114 -67.2556,12.9992 -97.4646,0.762993 -30.2079,-12.235 -55.7493,-35.9941 -69.4607,-68.3741 -13.7114,-32.3799 -12.9992,-67.2567 -0.762993,-97.4646 12.235,-30.2079 35.9941,-55.7493 68.3741,-69.4607z"/>
    <path id="_500565512" class="fil14" d="M1289.97 1426.65c19.9193,-8.43426 41.3776,-7.99489 59.9634,-0.466536 18.587,7.52717 34.3016,22.1457 42.7359,42.0638 8.43544,19.9193 7.99607,41.3764 0.467717,59.9634 -7.52835,18.587 -22.1457,34.3016 -42.0638,42.7359 -19.9193,8.43426 -41.3776,7.99607 -59.9634,0.467717 -18.587,-7.52835 -34.3016,-22.1457 -42.7359,-42.065 -8.43544,-19.9181 -7.99607,-41.3764 -0.467717,-59.9623 7.52835,-18.587 22.1457,-34.3016 42.0638,-42.737z"/>
    <path id="_500565392" class="fil15" d="M1296.74 1442.66c15.5008,-6.56339 32.1992,-6.22205 46.663,-0.362599 14.4638,5.85709 26.6929,17.2335 33.2563,32.7343 6.56457,15.4996 6.22323,32.1981 0.36378,46.6618 -5.85827,14.465 -17.2335,26.6941 -32.7343,33.2575 -15.5008,6.56339 -32.1992,6.22205 -46.663,0.36378 -14.4638,-5.85827 -26.6929,-17.2335 -33.2563,-32.7343 -6.56457,-15.5008 -6.22323,-32.1992 -0.36378,-46.663 5.85827,-14.4638 17.2335,-26.6929 32.7343,-33.2575z"/>
    <path id="_500564864" class="fil9" d="M1330.27 1474.74c-6.15,-2.49331 -13.2638,-2.63622 -19.8697,0.16063 -6.60591,2.79803 -11.4532,8.00552 -13.9429,14.1567 -2.49213,6.15 -2.63622,13.2626 0.161811,19.8697 2.79685,6.60591 8.00434,11.4532 14.1555,13.9429 6.15119,2.49213 13.2638,2.63622 19.8697,-0.161811 6.60591,-2.79685 11.4532,-8.00552 13.9429,-14.1555 2.49213,-6.15119 2.63622,-13.2638 -0.161811,-19.8697 -2.79685,-6.60591 -8.00434,-11.4532 -14.1555,-13.9429z"/>
   </g>
   <polygon id="_500565608" class="fil16" points="775.429,883.882 775.62,883.88 775.621,883.874 "/>
   <path id="_500564888" class="fil0" d="M681.119 917.329c12.1347,19.6713 37.9205,25.7858 57.593,13.6453 19.6725,-12.1276 7.363,-35.3764 -4.77284,-55.0548l-61.4327 -131.8c-12.137,-19.6689 -37.917,-25.7811 -57.5918,-13.6453 -19.6736,12.1358 -25.7788,37.9205 -13.6488,57.5953l79.8532 129.26z"/>
   <path id="_500564144" class="fil17" d="M607.92 836.583l-41.8843 -67.7989c-15.8717,-25.7421 -7.88386,-59.4768 17.8559,-75.3556 25.7445,-15.8788 59.4756,-7.88032 75.3544,17.8547l30.0721 64.5178c-25.7386,25.1658 -55.663,35.615 -81.3981,60.7819z"/>
   <path id="_500564240" class="fil4" d="M713.6 931.72c2.34095,6.58938 6.42756,12.6378 12.1725,17.4083 -1.32047,-1.41614 -2.52047,-2.74843 -3.58111,-3.99095 -3.83977,-4.4941 -6.67205,-8.98229 -8.59135,-13.4173z"/>
   <path id="_500564192" class="fil18" d="M717.315 915.525c-0.0011811,-0.00826772 -0.0011811,-0.0177165 0,-0.0259843l-4.89331 -59.3091 -0.0011811 0.00236221 4.89449 59.3327z"/>
   <path id="_500564216" class="fil19" d="M647.989 876.771l0.0011811 -0.00590552 -19.6854 -31.8626c0,0 -0.0011811,0.0011811 -0.0011811,0.0011811l-44.5583 -72.13c-6.00237,-9.73465 -8.79686,-20.5441 -8.6752,-31.1929 -0.121654,10.6488 2.67284,21.4583 8.6752,31.1929l44.5595 72.1288 19.6843 31.8685z"/>
   <path id="_500564264" class="fil0" d="M637.863 1500.72c-8.63859,26.8547 6.12756,34.578 33.6638,47.8689 27.528,13.2756 47.5004,7.98308 60.7843,-19.5543l80.843 -196.585c13.2827,-27.5374 1.7315,-60.6308 -25.8,-73.9134 -27.5315,-13.2803 -44.4969,2.83701 -66.0638,24.515 -41.0764,41.2713 -83.4272,217.67 -83.4272,217.669z"/>
   <path id="_500564624" class="fil20" d="M651.26 1450.3c6.08032,2.28662 12.1595,4.57678 18.2268,6.88583 26.6764,10.1244 53.2063,21.2327 80.8808,27.9331l-18.0579 43.9111c-13.2839,27.5374 -33.2551,32.8299 -60.7831,19.5543 -27.5374,-13.2921 -42.3012,-21.013 -33.6638,-47.8678 0,-0.0011811 5.06811,-21.1063 13.3973,-50.4166z"/>
   <path id="_500564648" class="fil0" d="M698.261 1315.81c29.4012,28.6311 63.7264,52.1658 95.2572,32.3918 31.5366,-19.7634 35.3315,-51.6095 15.5634,-83.1544l-156.071 -235.068c-25.0441,-39.9213 -67.376,-27.1488 -107.31,-2.1 -39.9378,25.0394 -49.9796,54.5611 -24.939,94.4883l177.5 193.442z"/>
   <path id="_500564168" class="fil21" d="M473.189 1021.32c2.27008,-1.93583 176.711,5.10119 179.079,7.87205l145.629 211.106c27.7559,43.2331 25.4292,75.0851 11.1933,114.888l-66.9792 154.322 -103.102 -25.2591 51.7949 -162.516 -106.838 -127.604 -120.465 -52.4882c-30.5469,-35.8985 -26.2134,-89.7686 9.68859,-120.32z"/>
   <path id="_500564288" class="fil22" d="M630.249 1498.55c0,0 -6.7252,21.1807 -23.6067,46.05 -5.75906,8.48386 -7.33465,23.2075 -10.9512,30.5457 -14.8606,3.22441 -19.5685,37.8083 -17.028,43.8567 2.20276,10.1268 52.428,20.1484 84.0662,9.01064 22.0146,-7.74568 39.9012,-0.396851 64.6619,6.94725 23.6327,7.01339 53.5252,14.0291 99.2422,7.91221 44.9811,-6.0189 35.7508,-48.8658 20.8559,-60.2847 -20.8417,-9.19843 -43.8036,-10.0039 -61.3158,-12.7406 -54.5067,-8.48977 -23.5051,-37.9252 -55.0075,-56.7154 -26.8961,15.4819 -50.3729,23.7803 -66.4654,19.2036 -24.5032,-6.9626 -21.6721,-33.3201 -34.4516,-33.7855z"/>
   <path id="_500564720" class="fil23" d="M654.188 1605.54c-23.1685,8.15906 -54.9933,6.4193 -75.6721,1.07953 1.59331,-12.378 7.0063,-29.2701 17.1744,-31.4776 3.61654,-7.33819 5.19213,-22.0618 10.9512,-30.5457 16.8815,-24.8693 23.6079,-46.05 23.6079,-46.05 12.7784,0.465355 9.94725,26.8229 34.4504,33.7855 16.0925,4.57678 39.5693,-3.72166 66.4654,-19.2036 31.5024,18.7902 0.500788,48.2256 55.0075,56.7154 17.5122,2.73662 40.474,3.54213 61.3158,12.7406 8.10591,6.21497 14.5122,21.7288 11.4402,35.5571 -4.63465,2.04095 -10.1398,3.58937 -16.637,4.45985 -52.4658,7.01221 -86.7721,-1.03583 -113.895,-9.08505 -28.4114,-8.43426 -48.9414,-16.8673 -74.2087,-7.97599z"/>
   <path id="_500563424" class="fil24" d="M592.711 1576.3c0.947245,-0.519685 1.93583,-0.936615 2.97992,-1.15984 3.61654,-7.33819 5.19213,-22.0618 10.9512,-30.5457 16.8815,-24.8693 23.6079,-46.05 23.6079,-46.05 12.7784,0.465355 9.94725,26.8229 34.4504,33.7855 16.0925,4.57678 39.5693,-3.72166 66.4654,-19.2036 31.5024,18.7902 16.1386,48.2256 70.6501,56.7154 17.5169,2.73662 24.8315,3.54213 45.6733,12.7406 2.01142,1.55906 3.91654,3.67205 5.59843,6.17717 -4.72796,2.77559 -10.7268,4.84843 -18.2906,5.86063 -45.7146,6.11221 -75.6071,-0.896457 -99.2422,-7.91221 -24.7618,-7.34646 -42.6473,-14.6953 -64.6642,-6.94607 -25.6937,9.03544 -63.6473,4.13268 -78.1796,-3.46181z"/>
   <path id="_500563952" class="fil25" d="M698.364 1560.23c-19.2036,3.60945 -44.1697,8.77914 -63.6638,4.10551 -11.4142,-2.73662 -21.2398,-8.78859 -30.0721,-16.2071 0.615355,-1.25551 1.28386,-2.44488 2.01378,-3.5315 16.8815,-24.8693 23.6079,-46.05 23.6079,-46.05 12.7784,0.465355 9.94725,26.8229 34.4504,33.7855 15.8055,4.49646 38.7378,-3.44055 65.0327,-18.3945 -4.04764,16.9748 -12.1902,42.6815 -31.3689,46.2922z"/>
   <path id="_500563736" class="fil26" d="M741.452 1568.1c1.37244,3.18307 5.05394,4.6441 8.22638,3.26693l21.2067 -9.15709c3.17599,-1.37126 4.63701,-5.04804 3.26811,-8.22757 -1.37362,-3.17362 -5.05394,-4.63701 -8.22993,-3.25748l-21.2114 9.14764c-3.16418,1.37244 -4.62992,5.06457 -3.25985,8.22757z"/>
   <path id="_500564048" class="fil26" d="M730.203 1550.98c1.25315,2.90315 4.62166,4.2437 7.52245,2.98701l19.4067 -8.37638c2.90551,-1.25787 4.24134,-4.63465 2.99055,-7.52953 -1.25787,-2.89725 -4.62166,-4.2378 -7.52835,-2.98819l-19.4103 8.38229c-2.90197,1.25197 -4.24134,4.61693 -2.9811,7.52481z"/>
   <path id="_500563928" class="fil26" d="M719.976 1535.2c1.25551,2.90906 4.6252,4.2437 7.53071,2.99292l19.4055 -8.38229c2.90315,-1.26142 4.24016,-4.62992 2.98583,-7.52717 -1.25433,-2.89961 -4.62284,-4.24607 -7.52481,-2.9811l-19.4043 8.37166c-2.9126,1.24843 -4.2437,4.61811 -2.99292,7.52599z"/>
   <path id="_500563664" class="fil27" d="M790.786 1567.62c-0.0141732,-0.00590552 -0.0295276,-0.00826772 -0.046063,-0.0129921 0.0141732,0.00236221 0.0330709,0.00826772 0.0472441,0.0129921l-0.0011811 0zm-0.0814961 -0.0236221c-7.34174,-1.88268 -13.0252,-4.27323 -17.5866,-7.01693 -0.00354331,0.00236221 -0.00826772,0.0106299 -0.0106299,0.011811 4.55906,2.74252 10.2555,5.12717 17.5973,7.0063l0 -0.0011811zm-27.8658 -15.5492l3.08268 -1.32756 -3.06851 1.32165c-1.37835,-1.57323 -2.61496,-3.18662 -3.76063,-4.84016 1.1374,1.65709 2.37284,3.27874 3.74646,4.84607z"/>
   <path id="_500563904" class="fil27" d="M774.035 1553.73c-1.06772,-2.20394 -3.27992,-3.51733 -5.6067,-3.52323 2.32677,0.00590552 4.53898,1.31929 5.6067,3.52323l0 0zm-8.05631 -3.02953c0.0259843,-0.011811 0.0531496,-0.022441 0.0814961,-0.034252 -0.0295276,0.0106299 -0.0555119,0.022441 -0.0814961,0.0354331l0 -0.0011811zm2.41772 -0.494882c0.00472441,0 0.00826772,0.0011811 0.0141732,0.0011811l-0.0011811 -0.0011811c-0.00472441,0 -0.00826772,0.0011811 -0.0129921,0.0011811l0 -0.0011811zm-8.30316 -12.2043c-0.943702,-2.11654 -3.02244,-3.38977 -5.20985,-3.39567 2.18622,0.011811 4.26615,1.27913 5.21103,3.39567l-0.0011811 0zm-7.41142 -2.96457c0.00708662,-0.0011811 0.0106299,-0.00472441 0.0200788,-0.00826772 -0.00944883,0.00354331 -0.0129921,0.00708662 -0.0200788,0.00826772zm2.16496 -0.431103c0.00236221,0 0.00590552,0 0.00944883,0l-0.0011811 0c-0.00236221,0 -0.00590552,0 -0.00826772,0z"/>
   <path id="_500563976" class="fil28" d="M740.49 1520.12l1.88268 -0.814961 -1.88622 0.806694c0,0.00354331 0.00354331,0.00354331 0.00354331,0.00826772l0 0zm-3.32953 -2.87599l75.9934 -184.792 -75.9934 184.792zm81.7134 -230.736c-0.00236221,-0.00708662 -0.00236221,-0.00708662 -0.00236221,-0.0106299 0,0.0011811 0,0.00826772 0.00354331,0.0106299l-0.0011811 0zm-0.0259843 -0.0980316c-2.01142,-7.03938 -5.28307,-14.2075 -9.76654,-21.3626 4.48111,7.15512 7.75512,14.3232 9.76654,21.3626zm-81.8327 -129.905c1.40551,-1.44567 2.79213,-2.8441 4.10551,-4.17048l0 -0.0011811c-1.32284,1.32638 -2.69764,2.71536 -4.11024,4.16339l0.00472441 0.00826772z"/>
   <path id="_500563592" class="fil24" d="M726.35 1526.22l14.1402 -6.09922c0,-0.00472441 -0.00236221,-0.00472441 -0.00236221,-0.00708662l-0.0188977 0.00944883c-1.02756,-0.964961 -2.13189,-1.91339 -3.31536,-2.85709l0.00708662 -0.0212599c-1.79528,-1.41732 -3.77717,-2.78977 -5.99528,-4.1126l0 -0.0011811c-0.479528,0.276378 -0.960237,0.551575 -1.43504,0.82441 -0.901182,3.77244 -1.99961,7.97127 -3.38032,12.2646z"/>
   <path id="_500563712" class="fil1" d="M747.195 1571.88c0.826772,0 1.67126,-0.166536 2.48268,-0.519685l21.2067 -9.15709c0.879922,-0.377953 1.62874,-0.936615 2.22284,-1.61339 0.00236221,-0.00236221 0.00708662,-0.00826772 0.0106299,-0.011811 -0.00708662,-0.00236221 -0.0106299,-0.00708662 -0.0188977,-0.0141732 1.5378,-1.7563 2.03858,-4.28977 1.05354,-6.58819 -0.0401575,-0.0885827 -0.0755906,-0.17126 -0.11811,-0.252756 -1.06772,-2.20394 -3.27992,-3.51733 -5.6067,-3.52323 -0.00590552,-0.0011811 -0.0129921,0 -0.0177165,0 -0.00590552,-0.0011811 -0.00944883,0 -0.0141732,0 -0.780709,-0.0011811 -1.57087,0.15 -2.33622,0.459449 -0.0295276,0.0106299 -0.0555119,0.022441 -0.0814961,0.0354331 -0.0200788,0.00826772 -0.0389764,0.0153543 -0.0555119,0.0236221l-0.0011811 0 -3.08268 1.32756 -18.1276 7.82008c-3.16418,1.37244 -4.62992,5.06457 -3.25866,8.22757 1.01929,2.36929 3.32244,3.78662 5.74252,3.78662z"/>
   <path id="_500563472" class="fil1" d="M735.461 1554.43c0.758268,0 1.52717,-0.151181 2.26417,-0.47126l19.4067 -8.37638c0.229134,-0.100394 0.452363,-0.21378 0.662599,-0.338977 -0.00354331,-0.00826772 -0.00944883,-0.0141732 -0.0106299,-0.0212599 2.43543,-1.45394 3.49134,-4.48937 2.33858,-7.1693 -0.011811,-0.0177165 -0.0200788,-0.0401575 -0.0283465,-0.0602363 -0.944883,-2.11654 -3.02362,-3.38386 -5.21103,-3.39567 -0.00826772,0 -0.0165354,0 -0.0271654,0 -0.00354331,0 -0.00708662,0 -0.00944883,0 -0.715749,0 -1.44331,0.137008 -2.14488,0.422835 -0.00944883,0.00354331 -0.0129921,0.00708662 -0.0200788,0.00826772 -0.0283465,0.011811 -0.0590552,0.022441 -0.0874016,0.0366142l-0.622441 0.270473c0,0 0,0.0011811 0,0.0011811l-18.7878 8.11064c-2.90197,1.25197 -4.24134,4.61693 -2.97992,7.52481 0.934253,2.1626 3.04252,3.45827 5.25709,3.45827z"/>
   <path id="_417896904" class="fil28" d="M749.897 1522.28c-0.930709,-2.15079 -3.02126,-3.44764 -5.22874,-3.45473 2.2063,0.00708662 4.29803,1.30394 5.22993,3.45473l-0.0011811 0zm-5.26182 -3.45473c0.00472441,0 0.00590552,0 0.00944883,0l0 0c-0.00354331,0 -0.00472441,0 -0.00944883,0z"/>
   <path id="_575029864" class="fil1" d="M725.24 1538.66c0.757087,0 1.52599,-0.151181 2.26654,-0.468898l19.4055 -8.38229c0.426378,-0.187795 0.823229,-0.420473 1.18347,-0.693308 -0.00590552,-0.00472441 -0.00826772,-0.0106299 -0.0129921,-0.0153543 2.05984,-1.54843 2.88307,-4.34764 1.81536,-6.81851l-0.0011811 0c-0.930709,-2.15079 -3.02126,-3.44764 -5.22874,-3.45473 -0.00708662,0 -0.0153543,0 -0.0236221,0 -0.00354331,0 -0.00472441,0 -0.00826772,0 -0.759449,0 -1.52599,0.153543 -2.26299,0.473622l0 -0.0011811 -1.88268 0.814961 -14.1402 6.09922 -3.3815 1.45866c-2.9126,1.24843 -4.2437,4.61811 -2.99292,7.52717 0.440552,1.01811 1.13976,1.84488 1.9878,2.43307 0.955513,0.666142 2.10118,1.02756 3.27638,1.02756z"/>
   <path id="_575022928" class="fil0" d="M335.85 1524.17c-8.13544,27.0118 6.78308,34.4492 34.5532,47.2063 27.7855,12.7618 47.654,7.08544 60.4111,-20.6965l71.693 -197.235c12.7583,-27.776 0.577559,-60.6508 -27.1996,-73.4008 -27.7855,-12.7654 -44.4296,3.6874 -65.5819,25.7646 -40.2815,42.0532 -73.8756,218.361 -73.8756,218.361z"/>
   <path id="_575035024" class="fil20" d="M370.403 1571.38c-27.7701,-12.7571 -42.6874,-20.1957 -34.5532,-47.2063 0,0 7.16693,-37.6571 18.8658,-82.3099 9.21969,3.28229 18.2516,6.99922 26.9918,10.3205 22.2272,8.42599 44.2843,17.4732 66.939,24.7158 2.67284,0.864568 5.37402,1.68662 8.05985,2.53347l-25.8921 71.2501c-12.7559,27.7831 -32.6256,33.4583 -60.4111,20.6965z"/>
   <path id="_575029816" class="fil0" d="M405.539 1276.51c-4.35709,40.8248 -1.65,82.343 33.3874,94.9194 35.0244,12.5847 62.4142,-4.1126 74.9906,-39.1335l94.7091 -257.165c15.9331,-44.367 -2.92796,-51.8705 -47.2926,-67.7977l-0.487796 5.71418c-44.374,-15.9366 -96.945,-39.9662 -112.877,4.38898l-42.43 259.074z"/>
   <path id="_575029744" class="fil25" d="M334.272 1496.49c0,0 -8.47796,20.537 -27.3768,43.9063 -6.45119,7.96772 -9.25867,22.5059 -13.4717,29.517 -15.0839,1.96654 -22.6677,36.039 -20.6469,42.2705 1.35118,10.2839 50.5559,24.4748 83.0138,16.024 44.1544,-11.4744 67.7587,33.1855 162.089,28.5414 45.326,-2.22756 39.7111,-45.704 25.8284,-58.3099 -20.0008,-10.9193 -42.8079,-13.6571 -60.0308,-17.8477 -31.2059,-7.57678 -32.9445,-19.8036 -34.8272,-32.9138 -1.35,-9.40985 -2.77677,-19.278 -15.2398,-28.2059 -28.0996,13.1728 -52.1835,19.4823 -67.8378,13.5673 -23.8276,-8.99528 -18.7949,-35.028 -31.5,-36.5492z"/>
   <path id="_575030056" class="fil29" d="M349.166 1605.11c-23.7697,6.18544 -55.3418,1.78583 -75.489,-5.263 2.61851,-12.2091 9.42402,-28.5874 19.7469,-29.9327 4.21418,-7.00985 7.02048,-21.5492 13.4717,-29.517 18.8988,-23.3693 27.3768,-43.9075 27.3768,-43.9075 12.7051,1.52244 7.67245,27.554 31.5,36.5504 15.6532,5.91497 39.7382,-0.394488 67.8378,-13.5673 12.463,8.92796 13.8898,18.7949 15.2398,28.2059 1.88268,13.1102 3.62126,25.337 34.8272,32.9138 17.2228,4.19055 40.0288,6.92717 60.0308,17.8477 7.55552,6.85512 12.6402,22.8473 8.42717,36.3674 -4.78937,1.66063 -10.4079,2.72953 -16.9488,3.05197 -108.261,5.32678 -135.346,-45.9319 -186.02,-32.7496z"/>
   <path id="_575030248" class="fil30" d="M290.351 1570.82c0.98504,-0.435827 2.00906,-0.766536 3.07323,-0.911812 4.21418,-7.00985 7.02048,-21.5492 13.4717,-29.517 18.8988,-23.3693 27.3768,-43.9075 27.3768,-43.9075 12.7051,1.52244 7.67245,27.554 31.5,36.5504 15.6532,5.91497 39.7382,-0.394488 67.8378,-13.5673 29.817,21.365 12.0461,49.4103 65.6469,62.4319 17.237,4.1941 24.4488,5.61496 44.4508,16.5354 1.86851,1.69843 3.59882,3.96851 5.05985,6.61182 -4.94528,2.36457 -11.0976,3.92481 -18.7146,4.30276 -94.3312,4.6441 -117.937,-40.0229 -162.086,-28.5378 -26.3587,6.85276 -63.7689,-1.21417 -77.6162,-9.99095z"/>
   <path id="_575030488" class="fil25" d="M396.974 1563.65c-19.4221,1.98543 -44.7402,5.0504 -63.776,-1.24252 -11.1402,-3.67914 -20.4284,-10.5343 -28.6051,-18.6626 0.714567,-1.20118 1.48465,-2.33386 2.30315,-3.34961 18.8988,-23.3693 27.3768,-43.9075 27.3768,-43.9075 12.7051,1.52244 7.67245,27.554 31.5,36.5504 15.3673,5.80276 38.8985,-0.197244 66.3367,-12.8788 -5.44961,16.5756 -15.7134,41.5028 -35.1355,43.4906z"/>
   <path id="_575030200" class="fil26" d="M439.259 1575.1c1.10079,3.27756 4.64882,5.04331 7.92284,3.9437l21.8953 -7.3441c3.28229,-1.10669 5.04331,-4.64882 3.94016,-7.92875 -1.09134,-3.27166 -4.64055,-5.03977 -7.91221,-3.9437l-21.9071 7.35355c-3.2811,1.09843 -5.03977,4.64292 -3.93898,7.9193z"/>
   <path id="_575030464" class="fil26" d="M429.48 1557.11c1.00512,2.98937 4.25315,4.60748 7.25197,3.59646l20.041 -6.72048c3.00118,-1.0063 4.61339,-4.24961 3.60355,-7.25197 -1.00158,-2.9941 -4.24725,-4.61811 -7.24134,-3.61418l-20.0504 6.72638c-3.00236,1.00984 -4.61221,4.2567 -3.60473,7.26379z"/>
   <path id="_575030344" class="fil26" d="M420.616 1540.52c1.00158,2.99882 4.24961,4.60748 7.24607,3.60473l20.0504 -6.72756c2.9941,-1.00276 4.59922,-4.24961 3.60118,-7.24961 -1.00394,-2.99646 -4.24961,-4.61103 -7.25316,-3.60236l-20.041 6.72756c-2.99646,0.99567 -4.60276,4.2437 -3.60355,7.24725z"/>
   <path id="_575030176" class="fil28" d="M526.132 1652.84l-0.0437008 -0.132284 -0.0377953 -0.0921261c0.0259843,0.0744095 0.0555119,0.147638 0.0814961,0.22441zm-0.895276 -2.18622l-0.0200788 -0.0472441c-0.022441,-0.0472441 -0.0448819,-0.0933072 -0.068504,-0.140551 0.0295276,0.0602363 0.0578741,0.125197 0.0897638,0.187795l-0.0011811 0zm-1.31339 -2.45669c-0.198425,-0.33189 -0.407481,-0.649607 -0.627166,-0.959056 -17.0953,-15.0662 -23.8158,-18.0449 -39.7016,-25.9406l-0.0011811 0c15.8858,7.89568 22.6075,10.8732 39.7028,25.9406l0 0.0011811c0.21378,0.308268 0.426378,0.624804 0.628347,0.956694l-0.0011811 0.0011811zm-38.4272 50.2524c-0.0165354,0 -0.0271654,-0.00472441 -0.0437008,-0.00590552 0.011811,0 0.0295276,0.00590552 0.0437008,0.00590552zm-0.125197 -0.0212599c-0.046063,-0.00590552 -0.0944883,-0.0141732 -0.141732,-0.0236221 0.0472441,0.00944883 0.0956694,0.0153543 0.141732,0.0236221zm-6.32599 -79.4965c-0.00708662,-0.00354331 -0.00826772,-0.00590552 -0.0141732,-0.00944883 0.00590552,0.00354331 0.00826772,0.00590552 0.0141732,0.00944883l0 0zm-0.0992127 -0.0531496c-9.22324,-5.04922 -15.4973,-10.0618 -19.9051,-15.078 -0.0106299,0.00708662 -0.0188977,0.011811 -0.0271654,0.0165354 4.41733,5.00788 10.7138,10.0169 19.9347,15.0614l-0.00236221 0zm-23.7874 -26.6481l-3.32953 0.337796c-1.17047,-2.6563 -2.05158,-5.32678 -2.77205,-8.00434 -0.00472441,-0.0011811 -0.00472441,-0.0011811 -0.00354331,0.0011811 0.719292,2.68465 1.58858,5.34804 2.75197,8.0067l3.35315 -0.341339zm-7.98544 -18.9461l-0.677953 0.0673229 0 0.00472441 0.677953 -0.0720473zm-14.4354 -27.241c-0.0850394,0.0177165 -0.170079,0.0354331 -0.257481,0.0519685l0 0.00354331c0.0874016,-0.0165354 0.17126,-0.0377953 0.257481,-0.0555119zm-51.4583 -188.607l-58.4056 -32.3138c0,0 0,0.00472441 0,0.00472441l58.3997 32.3114c-9.96497,25.3335 -18.8599,55.2024 -26.0811,82.6111 7.22245,-27.4087 16.1244,-57.2823 26.087,-82.6134zm-26.576 84.4808c-0.114567,0.438189 -0.233858,0.871654 -0.34252,1.30394 0.116929,-0.434646 0.227953,-0.86693 0.34252,-1.30394zm-0.579922 2.22402c-0.0885827,0.325985 -0.175984,0.651969 -0.255118,0.982678 -0.238583,0.920079 -0.485433,1.83071 -0.714567,2.7437 -0.108662,0.420473 -0.210236,0.844489 -0.315355,1.26378 0.419292,-1.65354 0.851575,-3.31536 1.28504,-4.99134l0 0.0011811zm-1.31575 5.10827c-0.0177165,0.0590552 -0.0330709,0.119291 -0.0472441,0.175984 -0.0307087,0.129921 -0.0649607,0.255118 -0.0944883,0.383859 0.046063,-0.188977 0.0944883,-0.370866 0.141732,-0.559843zm-0.242126 0.946064c-0.174803,0.679134 -0.348425,1.35473 -0.520867,2.02677 -0.10748,0.442914 -0.222047,0.883465 -0.325985,1.32047 0.27874,-1.11024 0.561024,-2.22638 0.848032,-3.34725l-0.0011811 0zm-0.989765 3.91418c-0.103937,0.396851 -0.199606,0.79252 -0.298819,1.18701 0.0992127,-0.394488 0.197244,-0.791339 0.297638,-1.18819l0.0011811 0.0011811zm-0.714567 2.8441c-0.080315,0.308268 -0.16063,0.623623 -0.236221,0.937796 -0.281103,1.12677 -0.5563,2.24882 -0.830316,3.36496 -0.0165354,0.0708662 -0.0318898,0.142913 -0.0496063,0.214961 0.367323,-1.49173 0.740552,-3 1.11614,-4.5189l0 0.0011811zm-1.17165 4.75394c-0.0295276,0.116929 -0.0625985,0.231496 -0.0921261,0.346063 -0.263386,1.09134 -0.532678,2.17559 -0.787796,3.25394 0.285827,-1.18701 0.581103,-2.39173 0.879922,-3.6zm-10.7894 173.141c-1.77047,-0.105118 -3.58701,-0.129921 -5.45552,-0.0720473 -0.0425197,0.00354331 -0.0814961,0.00472441 -0.120473,0.00472441 0.0389764,0 0.0779528,-0.0011811 0.120473,-0.00472441 1.86851,-0.0578741 3.68504,-0.0354331 5.4567,0.0708662l-0.0011811 0.0011811zm9.33072 -167.151c-0.191339,0.800788 -0.382677,1.59803 -0.579922,2.38347 -0.090945,0.42874 -0.194882,0.842127 -0.291733,1.2626 -0.0212599,0.0897638 -0.0425197,0.183071 -0.0649607,0.272835 0.307087,-1.28976 0.62126,-2.60197 0.938977,-3.9189l-0.00236221 0zm-1.2626 5.2878c-0.0779528,0.341339 -0.16063,0.679134 -0.242126,1.00984 -0.108662,0.47126 -0.218504,0.940158 -0.330709,1.40551 -0.184252,0.78189 -0.367323,1.56024 -0.543308,2.3374 -0.129921,0.536221 -0.252756,1.07717 -0.377953,1.61221 -0.0897638,0.390945 -0.175984,0.783071 -0.265748,1.16693 0.565748,-2.44016 1.15158,-4.95827 1.75984,-7.5319zm-2.01024 8.61379c-0.116929,0.490158 -0.225591,0.973229 -0.337796,1.46102 -0.144095,0.634252 -0.291733,1.26969 -0.431103,1.89685 -0.120473,0.501969 -0.229134,1.00039 -0.340158,1.49291 0.359055,-1.58032 0.729922,-3.19961 1.10906,-4.85079zm-1.16929 5.12835c-0.137008,0.595276 -0.269292,1.1811 -0.402756,1.76693 -0.0318898,0.140551 -0.0614174,0.281103 -0.0933072,0.427559 0.161811,-0.724016 0.327166,-1.45748 0.496063,-2.19449zm-0.703938 3.11103c-0.00944883,0.034252 -0.0153543,0.0673229 -0.0236221,0.101575 -0.105118,0.468898 -0.210236,0.936615 -0.311811,1.39606 0.111024,-0.494882 0.22441,-0.992127 0.335433,-1.49764zm-0.550394 2.45788c-0.0519685,0.242126 -0.106299,0.483071 -0.159449,0.724016 0.0531496,-0.237402 0.10748,-0.48189 0.161811,-0.724016l-0.00236221 0zm-0.281103 1.27559c-0.0992127,0.424016 -0.186614,0.846851 -0.279921,1.25787 -0.124016,0.562205 -0.246851,1.11496 -0.364961,1.66417 -0.116929,0.519685 -0.22441,1.02402 -0.336614,1.52717 -0.106299,0.490158 -0.217323,0.976772 -0.315355,1.45394 -0.103937,0.477166 -0.20315,0.933072 -0.298819,1.39134 0.493701,-2.29606 1.02874,-4.73622 1.59567,-7.29449l0 0zm-1.74213 7.96536c-0.0578741,0.270473 -0.119291,0.540945 -0.18189,0.807875 -0.0779528,0.393307 -0.165354,0.773623 -0.243307,1.16457 -0.830316,1.08307 -2.01378,2.58307 -3.54095,4.41969 1.52599,-1.83307 2.70945,-3.33425 3.54331,-4.41733 0.137008,-0.646063 0.277559,-1.30276 0.421654,-1.9748l0.0011811 0zm-8.01142 133.265c-0.0531496,-0.00236221 -0.106299,-0.0011811 -0.16063,0 0.0531496,-0.0011811 0.10748,-0.00236221 0.16063,0l0 0zm-22.5343 -100.388c-0.00236221,0.00590552 -0.00826772,0.00826772 -0.0141732,0.011811 0.00236221,-0.0011811 0.011811,-0.00944883 0.0141732,-0.011811zm-0.124016 0.103937c-0.00708662,0.00590552 -0.0153543,0.0106299 -0.0236221,0.0177165 0.00826772,-0.00590552 0.0141732,-0.011811 0.0236221,-0.0177165zm-0.115748 0.0956694c-0.0106299,0.0106299 -0.0236221,0.0200788 -0.0354331,0.0318898 0.011811,-0.0106299 0.0236221,-0.022441 0.0354331,-0.0318898l0 0zm-0.121654 0.103937c-0.0283465,0.022441 -0.0578741,0.0484252 -0.0862205,0.0696851 0.0283465,-0.0212599 0.0578741,-0.0484252 0.0874016,-0.0696851l-0.0011811 0zm-0.141732 0.115748c-0.0259843,0.0236221 -0.0555119,0.0472441 -0.0814961,0.0720473 0.0248032,-0.0248032 0.0555119,-0.0496063 0.0838583,-0.0732284l-0.00236221 0.0011811zm-0.109843 0.0885827c-0.0259843,0.0236221 -0.0590552,0.0519685 -0.0838583,0.0732284 0.0283465,-0.022441 0.0555119,-0.0472441 0.0850394,-0.0744095l-0.0011811 0.0011811zm-0.108662 0.0933072c-0.135827,0.112205 -0.269292,0.225591 -0.4063,0.337796 0.137008,-0.112205 0.270473,-0.225591 0.407481,-0.338977l-0.0011811 0.0011811zm-0.407481 0.337796c-1.05354,0.869292 -2.13425,1.74803 -3.23977,2.61969 1.10669,-0.874016 2.18268,-1.74803 3.24095,-2.61969l-0.0011811 0zm-3.25158 2.63032c-0.0271654,0.0236221 -0.056693,0.0448819 -0.0826772,0.068504 0.0248032,-0.0236221 0.0555119,-0.0484252 0.0826772,-0.068504zm-0.124016 0.0992127c-0.022441,0.0188977 -0.0496063,0.0389764 -0.0744095,0.0578741 0.0248032,-0.0165354 0.0472441,-0.0377953 0.0744095,-0.0578741l0 0zm-0.134646 0.106299c-0.0200788,0.0165354 -0.0425197,0.0318898 -0.0614174,0.046063 0.0188977,-0.0129921 0.0425197,-0.0318898 0.0625985,-0.0484252l-0.0011811 0.00236221zm-33.7264 78.4005c-9.61891,-5.80867 -15.8244,-11.739 -15.5917,-15.6602l0 0c-0.232677,3.92126 5.9752,9.85276 15.5929,15.6591l-0.0011811 0.0011811zm-0.941339 -44.6634l-0.0472441 0.0507874c-0.111024,0.119291 -0.220866,0.239764 -0.329528,0.362599 0.124016,-0.13937 0.250394,-0.275197 0.376772,-0.413386l0 0zm-14.224 25.6063c-0.0011811,0.00236221 0,0.00354331 -0.0011811,0.00708662 0,-0.0011811 0.00236221,-0.00472441 0.00236221,-0.00826772l-0.0011811 0.0011811zm-0.00472441 0.00944883c-0.233858,0.964961 -0.376772,1.80118 -0.416929,2.48504 -0.0188977,0.294095 -0.0177165,0.558662 0.00590552,0.788977 -0.0248032,-0.231496 -0.0248032,-0.494882 -0.00590552,-0.786615 0.0401575,-0.682678 0.183071,-1.52244 0.416929,-2.4874l0 0zm-0.412205 3.2752c-0.00472441,0.0389764 -0.00708662,0.0755906 -0.00944883,0.112205 0.00236221,-0.0366142 0.00472441,-0.0767717 0.00944883,-0.112205z"/>
   <path id="_575030272" class="fil22" d="M553.358 1619.53c0.00590552,0.0248032 0.00590552,0.0531496 0.0106299,0.0791339 -0.00354331,-0.0248032 -0.00472441,-0.0543308 -0.0106299,-0.080315l0 0.0011811zm0.0129921 0.106299c0.598819,5.0126 0.296457,10.2543 -1.23543,15.1713 -4.78937,1.66063 -10.4079,2.72953 -16.9488,3.05197 -108.261,5.32678 -135.346,-45.9319 -186.02,-32.7496 -23.7697,6.18544 -55.3418,1.78583 -75.489,-5.263 0.491339,-2.29961 1.1315,-4.74449 1.91811,-7.21064l-0.0212599 0.0625985c-0.511418,1.6063 -0.959056,3.19488 -1.34173,4.74804l-0.0377953 0.12874c-1.09016,4.40552 -1.67953,8.45079 -1.73504,11.3126 -0.0011811,0.00472441 0,0.00590552 0,0.00944883 -0.0011811,0.0011811 -0.00236221,0.0011811 -0.00236221,0.00354331 -0.0177165,0.992127 0.0295276,1.84252 0.141732,2.51811 0.046063,0.28937 0.105118,0.546851 0.178347,0.765355l0 0.0011811c0.00354331,0.0377953 0.00944883,0.0755906 0.0153543,0.111024l0 0c0.638977,3.8752 8.00197,8.29016 18.665,11.8311 17.2914,5.74843 43.2544,9.19843 63.2611,4.35118 0.0531496,-0.0129921 0.105118,-0.0259843 0.157087,-0.0354331 0.265748,-0.0661418 0.530315,-0.133465 0.799607,-0.204331 0.0377953,-0.00826772 0.0755906,-0.0165354 0.115748,-0.0307087 1.81063,-0.468898 3.58819,-0.848032 5.33741,-1.13504 40.8733,-6.75945 66.2894,34.128 156.751,29.6764l0 0c0.0484252,-0.00236221 0.0968505,-0.00472441 0.142913,-0.00944883 0.0283465,0 0.056693,-0.0011811 0.0838583,-0.00236221 0.0153543,-0.00354331 0.0271654,-0.0011811 0.0437008,-0.00590552 20.4815,-1.08543 30.4642,-10.6429 33.9851,-21.9248l0.00590552 -0.0188977c1.52835,-4.91103 1.83425,-10.1469 1.22953,-15.1524zm-271.221 -41.2264c-0.00590552,0.00354331 -0.00826772,0.0106299 -0.00944883,0.0141732l-0.00708662 0.0106299c0.00354331,-0.00708662 0.0106299,-0.0177165 0.0165354,-0.0248032l0 0zm-1.44921 2.33268l-0.0236221 0.034252c-0.0933072,0.161811 -0.185433,0.322441 -0.275197,0.485433 -0.291733,0.52441 -0.578741,1.06299 -0.850394,1.60394l-0.0177165 0.0283465c0.373229,-0.733465 0.762993,-1.45276 1.16693,-2.15315l0 0.0011811zm-2.8441 5.76497c-0.494882,1.15984 -0.949607,2.34095 -1.37953,3.5315l-0.0318898 0.090945c0.437008,-1.22244 0.90945,-2.43189 1.41142,-3.62244z"/>
   <path id="_575030392" class="fil31" d="M553.115 1617.82c-0.20315,-1.22953 -0.46063,-2.44252 -0.766536,-3.62835l-0.0625985 -0.243307c-0.190158,-0.700394 -0.38504,-1.3937 -0.601182,-2.06929l-0.155906 -0.459449c-0.190158,-0.592914 -0.402756,-1.18465 -0.628347,-1.75394l-0.227953 -0.592914c-0.211417,-0.516142 -0.42874,-1.02047 -0.65315,-1.52362l-0.301181 -0.661418c-0.229134,-0.455906 -0.454725,-0.907087 -0.694489,-1.34646l-0.257481 -0.498426c-4.94646,2.36575 -11.0965,3.92481 -18.7134,4.30276 -94.3312,4.6441 -117.937,-40.0229 -162.086,-28.5378 -26.3587,6.85276 -63.7689,-1.21417 -77.6174,-9.99213 0.591733,-0.262205 1.19764,-0.485433 1.81772,-0.655512 -0.147638,0.0425197 -0.292914,0.0826772 -0.435827,0.124016l-0.498426 0.166536c-0.412205,0.147638 -0.822048,0.314173 -1.22244,0.50315l-0.434646 0.210236c-0.523229,0.26811 -1.02402,0.572835 -1.52717,0.918898l-0.276378 0.216142c-0.416929,0.301181 -0.817323,0.62126 -1.20827,0.960237l-0.447638 0.400394c-0.364961,0.346063 -0.729922,0.713386 -1.09606,1.09488l-0.302362 0.322441c-0.43937,0.494882 -0.871654,1.01221 -1.29449,1.55669l-0.320079 0.431103c-0.324803,0.434646 -0.641339,0.876379 -0.954331,1.33583 -0.00590552,0.00708662 -0.0129921,0.0177165 -0.0177165,0.022441l-0.335433 0.517323c-0.362599,0.565748 -0.721654,1.14449 -1.06417,1.74331l-0.0318898 0.0496063c-0.403937,0.699213 -0.79252,1.41732 -1.16693,2.15197l-0.22441 0.46063c-0.282284,0.570473 -0.557481,1.14331 -0.825591,1.72559l-0.204331 0.46063c-0.144095,0.32126 -0.283465,0.64252 -0.422835,0.964961 -0.501969,1.19173 -0.97441,2.40118 -1.41142,3.62362l-0.102756 0.305906c-0.250394,0.709843 -0.50315,1.42087 -0.724016,2.13898l-0.022441 0.0625985c-0.785434,2.46614 -1.42559,4.90867 -1.91811,7.20945 20.1484,7.04882 51.7193,11.4484 75.489,5.263 50.6741,-13.1823 77.7591,38.0764 186.02,32.7496 6.54095,-0.322441 12.1595,-1.39134 16.9488,-3.05197 1.53189,-4.91693 1.83425,-10.1587 1.23543,-15.1713 -0.0011811,-0.011811 -0.0011811,-0.0200788 -0.00236221,-0.0271654 -0.00354331,-0.0248032 -0.00472441,-0.0543308 -0.0106299,-0.080315 -0.0708662,-0.568111 -0.148819,-1.1374 -0.242126,-1.69961zm-5.38819 -14.5264l-0.0165354 -0.0271654c-0.0425197,-0.0649607 -0.0874016,-0.132284 -0.12874,-0.199606l-0.0153543 -0.0200788c0.0531496,0.0814961 0.10748,0.164173 0.16063,0.246851l0 0zm-1.33583 -1.90866l-0.0377953 -0.0519685c-0.0425197,-0.0543308 -0.0838583,-0.111024 -0.125197,-0.162992 -0.0318898,-0.0354331 -0.0614174,-0.0755906 -0.0933072,-0.114567 0.0874016,0.109843 0.173622,0.219685 0.257481,0.328347l-0.0011811 0.0011811zm-1.7504 -2.04449c-0.034252,-0.0389764 -0.0720473,-0.0779528 -0.108662,-0.114567 -0.270473,-0.27874 -0.549213,-0.542126 -0.82441,-0.794883 0.314173,0.285827 0.627166,0.588189 0.933072,0.90945zm-251.217 -29.4355l0 0c-0.12874,0.0177165 -0.257481,0.0366142 -0.38504,0.0614174 0.126378,-0.0236221 0.256299,-0.0437008 0.38504,-0.0614174z"/>
   <path id="_575029624" class="fil23" d="M548.768 1605.05l0 0 -0.13937 -0.231496c-0.219685,-0.396851 -0.445276,-0.774804 -0.687402,-1.15158l-0.21378 -0.366142c-0.0531496,-0.0826772 -0.10748,-0.165354 -0.16063,-0.246851l-0.0519685 -0.0708662c-0.242126,-0.375591 -0.501969,-0.718111 -0.755906,-1.07835l-0.367323 -0.512599c-0.0838583,-0.111024 -0.168898,-0.219685 -0.256299,-0.329528 -0.227953,-0.27874 -0.457087,-0.544489 -0.683859,-0.807875l-0.418111 -0.480709c-0.127559,-0.144095 -0.257481,-0.288189 -0.392126,-0.426378 -0.305906,-0.32126 -0.62126,-0.623623 -0.933072,-0.90945l0 0.0011811c-20.0008,-10.9205 -27.2126,-12.3425 -44.4508,-16.5366l0 0.0011811c-1.72559,-0.415748 -3.37914,-0.852757 -4.95827,-1.30276 -0.00826772,-0.0011811 -0.00944883,-0.00354331 -0.0165354,-0.00590552 -0.0307087,-0.00472441 -0.0614174,-0.0165354 -0.0897638,-0.0248032 -10.1079,-2.88425 -17.3551,-6.37914 -22.7693,-10.2874 -0.647245,0.62126 -1.43858,1.11614 -2.34567,1.42205l-21.8953 7.3441c-3.27402,1.09961 -6.82205,-0.666142 -7.92166,-3.9437 -0.109843,-0.324803 -0.190158,-0.657875 -0.244488,-0.98504 -0.490158,-2.97402 1.23189,-5.94685 4.18111,-6.93426l18.7134 -6.27874c-1.72323,-2.33622 -3.15709,-4.74331 -4.45276,-7.20119 -0.218504,0.103937 -0.448819,0.198425 -0.68504,0.27874l-20.0421 6.72166c-2.99764,1.00984 -6.24567,-0.609449 -7.25197,-3.59882 -0.100394,-0.295276 -0.173622,-0.596457 -0.222047,-0.895276 -0.45,-2.73071 1.12323,-5.4567 3.82796,-6.36733l19.4032 -6.5067 -0.0011811 -0.00472441 -0.00236221 0.0011811c-1.02165,-2.16496 -2.11299,-4.34764 -3.34961,-6.50788 -0.373229,0.237402 -0.784253,0.429922 -1.22244,0.576378l-20.0516 6.72993c-1.9441,0.649607 -3.99685,0.201969 -5.47087,-1.01811 -5.95394,10.4953 -14.1413,19.3795 -25.4173,20.5335 -19.4209,1.98662 -44.739,5.05158 -63.7749,-1.24134 -11.1402,-3.67914 -20.4284,-10.5343 -28.6051,-18.6626 0.714567,-1.20118 1.48465,-2.33386 2.30315,-3.34961 -6.45119,7.96772 -9.25867,22.5059 -13.4717,29.517l0 0c-0.12874,0.0177165 -0.257481,0.0366142 -0.38504,0.0614174 -0.296457,0.0519685 -0.585827,0.119291 -0.871654,0.193701 -0.620079,0.170079 -1.22599,0.393307 -1.81772,0.655512 13.8496,8.78032 51.2599,16.8437 77.6174,9.99213 44.1496,-11.485 67.7564,33.1807 162.086,28.5378 7.61693,-0.376772 13.7669,-1.93701 18.7134,-4.30276l-0.00472441 0.0011811 0.00590552 -0.0011811zm-106.474 -77.8394c-2.3752,-2.65158 -5.19449,-5.23819 -8.68347,-7.73977l-0.0011811 0c-0.186614,0.0921261 -0.376772,0.177165 -0.570473,0.266929 -0.314173,0.146457 -0.622441,0.290551 -0.933072,0.432284 -1.20945,3.6815 -2.65748,7.77284 -4.39134,11.9362l14.5795 -4.89567z"/>
   <path id="_575029696" class="fil24" d="M432.11 1520.16c-27.4394,12.6803 -50.9705,18.6803 -66.3378,12.8776 -23.8276,-8.99528 -18.7949,-35.028 -31.5,-36.5504l0 0.0011811c0,0 -1.12677,2.72481 -3.46772,7.31812 -3.63662,7.12678 -10.2059,18.7547 -20.0752,31.7008 -0.0011811,0.00236221 -0.00826772,0.0141732 -0.0106299,0.0153543 -0.0283465,0.0401575 -0.056693,0.0755906 -0.0874016,0.113386 -0.00826772,0.00826772 -0.0129921,0.0141732 -0.0188977,0.0236221 -0.0236221,0.034252 -0.046063,0.0614174 -0.0720473,0.0944883 -0.00826772,0.0129921 -0.0200788,0.0259843 -0.0283465,0.0389764 -0.0236221,0.0295276 -0.0448819,0.0590552 -0.0673229,0.0897638 -0.022441,0.0295276 -0.046063,0.0602363 -0.0696851,0.0874016 -0.0141732,0.0212599 -0.0283465,0.0377953 -0.0425197,0.0555119 -0.0200788,0.0318898 -0.0448819,0.0602363 -0.0661418,0.0897638 -0.00708662,0.00708662 -0.0129921,0.0165354 -0.0200788,0.0212599 -0.0248032,0.034252 -0.0448819,0.0625985 -0.068504,0.090945 -0.00708662,0.00826772 -0.011811,0.0153543 -0.0188977,0.0236221 -0.108662,0.140551 -0.21378,0.281103 -0.32126,0.421654l-0.00236221 0c-0.837402,1.08425 -1.69725,2.17205 -2.58071,3.26929 -0.00236221,0.00708662 -0.00472441,0.00944883 -0.00826772,0.0141732 -0.022441,0.0248032 -0.0472441,0.0555119 -0.0661418,0.0838583 -0.0141732,0.0129921 -0.022441,0.0259843 -0.034252,0.0389764 -0.022441,0.0271654 -0.0389764,0.0507874 -0.0590552,0.0744095 -0.0165354,0.0200788 -0.034252,0.0377953 -0.0472441,0.056693 -0.0165354,0.0200788 -0.0354331,0.0425197 -0.0507874,0.0625985 -0.0307087,0.0437008 -0.0637796,0.0791339 -0.0933072,0.121654l-0.0011811 0.0011811c-0.817323,1.01457 -1.5874,2.14725 -2.30197,3.34843 8.17678,8.12835 17.4685,14.9835 28.6051,18.6626 19.0358,6.29292 44.354,3.22677 63.7749,1.24134 11.276,-1.15394 19.4646,-10.0394 25.4173,-20.5335 -0.797245,-0.657875 -1.42323,-1.5378 -1.77402,-2.5878 -0.101575,-0.294095 -0.172441,-0.592914 -0.222047,-0.88819 -0.448819,-2.72835 1.12323,-5.45906 3.82559,-6.35906l3.49488 -1.17402c1.73386,-4.16339 3.18189,-8.25473 4.39134,-11.9362l-0.0011811 0.0011811c0.00354331,-0.00354331 0.00236221,-0.00708662 0.00590552,-0.0106299z"/>
   <path id="_575029168" class="fil28" d="M473.198 1564.41c-0.00236221,-0.00708662 -0.00472441,-0.0153543 -0.00590552,-0.0248032 0.0011811,0.00944883 0.00354331,0.0177165 0.00590552,0.0248032zm-0.00944883 -0.0248032c-0.0448819,-0.204331 -0.100394,-0.411024 -0.17126,-0.614174 -0.98504,-2.9504 -3.97205,-4.68071 -6.94961,-4.18583 2.97638,-0.493701 5.96575,1.23543 6.94961,4.18583 0.0708662,0.20315 0.126378,0.409843 0.17126,0.614174z"/>
   <path id="_575029072" class="fil1" d="M473.26 1564.75c-0.0165354,-0.111024 -0.0389764,-0.225591 -0.0614174,-0.337796 -0.00236221,-0.00708662 -0.00472441,-0.0153543 -0.00590552,-0.0248032 -0.00354331,0 -0.00354331,-0.0011811 -0.00354331,-0.0011811 -0.0448819,-0.20315 -0.100394,-0.409843 -0.17126,-0.612993 -0.98504,-2.9504 -3.97205,-4.68071 -6.94961,-4.18583 -0.322441,0.0578741 -0.644882,0.135827 -0.962599,0.242126l0 0 -3.19488 1.0748 -18.7122 6.27874c-2.9504,0.987402 -4.67244,3.96024 -4.18229,6.93426 0.0543308,0.327166 0.134646,0.660237 0.244488,0.98504 1.09961,3.27756 4.64764,5.04331 7.92166,3.9437l21.8953 -7.3441c0.907087,-0.305906 1.69843,-0.800788 2.34567,-1.42205 0.00708662,-0.00590552 0.0141732,-0.0141732 0.0236221,-0.022441 -0.00826772,0 -0.00944883,-0.00236221 -0.011811,-0.00472441 1.43976,-1.40315 2.16496,-3.45118 1.8248,-5.50276z"/>
   <path id="_575029240" class="fil1" d="M460.6 1547.62c-0.0507874,-0.297638 -0.125197,-0.597638 -0.223229,-0.892914l-0.00236221 0c-0.902363,-2.70118 -3.63307,-4.28622 -6.35788,-3.83268 -0.296457,0.0507874 -0.590552,0.124016 -0.881103,0.218504l0 0 -0.647245 0.219685 -19.4032 6.5067c-2.70473,0.910631 -4.27796,3.63662 -3.82796,6.36733 0.0484252,0.301181 0.121654,0.6 0.222047,0.895276 1.0063,2.99055 4.25433,4.60866 7.25316,3.59764l20.041 -6.72048c0.236221,-0.0779528 0.466536,-0.174803 0.68504,-0.27874 -0.0011811,-0.00236221 -0.0011811,-0.00236221 0.00354331,-0.00236221 -0.00472441,-0.00472441 -0.00826772,-0.011811 -0.0141732,-0.022441 2.27953,-1.10669 3.56221,-3.57402 3.15236,-6.05552z"/>
   <path id="_575029384" class="fil28" d="M451.733 1531.04c-0.0472441,-0.295276 -0.119291,-0.591733 -0.219685,-0.885827 -0.903544,-2.70236 -3.6378,-4.2815 -6.36851,-3.82205 2.73071,-0.459449 5.46496,1.11969 6.36851,3.82205 0.0968505,0.296457 0.172441,0.589371 0.220866,0.889371 0.0129921,0.0826772 0.0248032,0.166536 0.034252,0.245669 -0.0106299,-0.0826772 -0.0212599,-0.165354 -0.0354331,-0.249213l0 0zm0.0377953 0.258662c0,0.00708662 0.0011811,0.0106299 0.0011811,0.0177165 0,-0.00708662 -0.0011811,-0.0106299 -0.0011811,-0.0177165z"/>
   <path id="_575029120" class="fil1" d="M451.734 1531.04c-0.0484252,-0.3 -0.122835,-0.595276 -0.220866,-0.890552 -0.903544,-2.70236 -3.6378,-4.2815 -6.36851,-3.82205 -0.296457,0.0484252 -0.590552,0.121654 -0.884646,0.219685l-1.96654 0.657875 -14.5795 4.89567 -3.49488 1.17402c-2.70355,0.900001 -4.27441,3.63071 -3.82559,6.35906 0.0496063,0.295276 0.122835,0.592914 0.222047,0.88819 0.350788,1.05 0.976772,1.92992 1.77402,2.5878 1.47284,1.22008 3.52677,1.66772 5.47205,1.01693l20.0504 -6.72756c0.438189,-0.147638 0.850394,-0.34252 1.22244,-0.577559 -0.00472441,-0.00708662 -0.00708662,-0.0129921 -0.00708662,-0.0177165 1.85315,-1.17165 2.89607,-3.30945 2.64449,-5.49213 0,-0.00708662 -0.0011811,-0.0106299 -0.0011811,-0.0177165 -0.0011811,-0.00354331 -0.0011811,-0.00708662 -0.00236221,-0.00944883 -0.00944883,-0.0791339 -0.0212599,-0.162992 -0.034252,-0.244488z"/>
   <path id="_575029456" class="fil32" d="M500.196 665.589c-2.98465,30.7394 29.2323,37.8213 65.1815,41.3114 35.9587,3.4937 44.6929,39.2221 47.6776,8.48623 0,0 10.1787,-94.343 12.7524,-185.386 0.870473,-30.8729 -1.89331,-52.0559 -37.8414,-55.5461 -35.9575,-3.4937 -77.928,14.9138 -77.928,45.7973 0,104.587 -9.84213,145.337 -9.84213,145.337z"/>
   <path id="_575029720" class="fil0" d="M505.049 546.936c-2.66575,26.739 48.3851,77.4603 87.9638,78.5587l8.76379 -0.329528c25.813,0.71693 59.6245,-5.74843 58.2083,-33.0473 -0.347244,-6.6815 -10.05,-32.4685 5.24056,-33.7736 5.69056,-0.485433 11.9728,-3.74882 12.1205,-9.80079l-15.4795 -61.917 10.063 -20.5264c17.5063,-77.8465 -19.839,-74.8512 -64.3489,-79.2402l-26.9362 0.334252c-39.5729,-1.10433 -72.4914,32.2843 -73.5249,74.576l-2.07047 85.1658z"/>
   <path id="_575029552" class="fil22" d="M505.303 536.575c-70.8591,-154.175 32.2051,-194.848 81.5457,-185.842 149.994,6.66733 85.1446,72.0627 89.8867,77.9174 -145.787,-31.9122 -116.647,61.9855 -143.608,64.3217 -26.9717,2.33858 -9.00591,33.476 -27.8244,43.6028z"/>
   <path id="_575028832" class="fil0" d="M497.464 506.177c0,14.1768 11.4862,25.6654 25.6595,25.6654 14.1744,0 25.6677,-11.4886 25.6677,-25.6654 -0.0011811,-14.1756 -11.4921,-25.663 -25.6677,-25.663 -14.1732,-0.0011811 -25.6595,11.4886 -25.6595,25.663z"/>
   <path id="_575028712" class="fil1" d="M506.993 535.711l0 0c-1.35591,-2.77677 -2.65512,-5.5252 -3.88583,-8.22993 1.23071,2.70709 2.52874,5.45197 3.88583,8.22993l0 0zm-3.9378 -8.34213c-0.00236221,-0.00944883 -0.011811,-0.0259843 -0.0141732,-0.034252 0.00236221,0.00944883 0.00944883,0.0236221 0.0141732,0.034252z"/>
   <path id="_575028640" class="fil33" d="M507.096 547.454c0,-0.00354331 0.0011811,-0.00590552 0.0011811,-0.00944883 -0.0011811,0 0,0.00590552 0,0.0106299l-0.0011811 -0.0011811zm0.0129921 -0.158268c0,-0.011811 0,-0.0153543 0.00236221,-0.0271654 -0.00236221,0.011811 -0.00236221,0.0153543 -0.00236221,0.0271654zm0.00354331 -0.0661418c0.00236221,-0.00944883 0.00354331,-0.0200788 0.00354331,-0.0307087 -0.0011811,0.0106299 0,0.0212599 -0.00354331,0.0318898l0 -0.0011811zm0.00826772 -0.0649607c0,-0.0200788 0.00236221,-0.0425197 0.00590552,-0.0602363 -0.00354331,0.0177165 -0.00590552,0.0413386 -0.00590552,0.0602363zm0.00708662 -0.090945c0.00354331,-0.0153543 0.00354331,-0.0283465 0.00590552,-0.0425197 -0.00236221,0.011811 -0.00236221,0.0283465 -0.00472441,0.0425197l-0.0011811 0zm0.00826772 -0.0708662c0.0011811,-0.0212599 0.00472441,-0.0437008 0.00708662,-0.0661418 -0.00236221,0.0212599 -0.00472441,0.0448819 -0.00708662,0.0661418l0 0zm0.276378 -10.4327l0 0c-0.140551,-0.287008 -0.27874,-0.568111 -0.419292,-0.859843l0 0c0.138189,0.287008 0.27874,0.574016 0.419292,0.859843z"/>
   <path id="_575028232" class="fil34" d="M461.192 983.714c-4.14803,-0.703938 -8.29489,-1.40788 -12.4488,-2.11299 3.68504,-26.6232 2.18386,-160.713 16.7457,-254.064 11.0173,-70.6182 38.9693,-108.529 41.204,-112.538 1.24961,-4.84961 18.15,30.6685 111.691,42.8209 26.0256,26.6303 42.8079,57.9792 54.0355,98.7757 13.1953,47.9481 -11.3717,250.168 -12.4925,261.227 -73.2556,-9.98977 -123.073,-21.2398 -198.735,-34.1091z"/>
   <path id="_575028808" class="fil35" d="M339.948 1481.85c18.5008,-66.9485 98.243,-441.203 110.267,-510.626 10.1787,2.67874 21.4453,5.85355 31.6299,8.51221 40.4528,10.5626 81.0497,20.491 121.567,30.8067 22.6158,5.7626 32.8807,10.3878 55.865,14.5028 -1.37717,15.7961 -0.442914,14.5772 -0.442914,14.5772l-42.7134 64.4174c-1.61575,4.33111 -3.65197,8.72245 -6.13111,13.1551l-96.6768 219.763 -64.9678 173.704c-41.4024,-0.281103 -80.1922,-5.18032 -108.397,-28.8118z"/>
   <path id="_575028304" class="fil24" d="M658.714 1032.4c0.527953,-3.8504 1.29095,-16.1126 1.29095,-16.1126l-207.938 -57.8941 -3.32481 23.2087c0,0 140.463,37.6311 209.972,50.7981z"/>
   <path id="_575028520" class="fil0" d="M599.513 926.609c17.5583,27.4429 54.0319,35.4614 81.4749,17.8996 27.4406,-17.5512 10.1091,-45.9426 -7.44804,-73.3914l-90.1701 -188.387c-17.5536,-27.4382 -54.0355,-35.4532 -81.4737,-17.8937 -27.4429,17.5547 -35.4532,54.0367 -17.902,81.469l115.519 180.304z"/>
   <path id="_575028736" class="fil36" d="M533.454 824.36l-49.4599 -78.0556c-17.5512,-27.4323 -9.54095,-63.9142 17.902,-81.469 27.4382,-17.5595 63.9201,-9.5445 81.4749,17.8925l48.4583 98.3883 -98.3753 43.2437z"/>
   <path id="_575028424" class="fil28" d="M751.675 1101.18c0.0011811,-0.00354331 0.00236221,-0.00590552 0.00472441,-0.00826772 -0.00354331,0.00472441 -0.00236221,0.00236221 -0.00472441,0.00708662l0 0.0011811zm-0.0259843 0.0401575c-2.25709,3.51733 -6.61182,5.33622 -10.8638,4.17874l0 0.0011811c4.25079,1.15512 8.60788,-0.662599 10.8638,-4.17992l0 0zm1.20945 -2.73425l0 0c0.141732,-0.530315 0.240945,-1.06536 0.296457,-1.59095 -0.0578741,0.529134 -0.153543,1.05945 -0.296457,1.59095l0 0zm0.297638 -1.61929c0.0011811,-0.00590552 0.00236221,-0.0153543 0.00236221,-0.0212599 0,0.00708662 -0.0011811,0.0141732 -0.0011811,0.0212599l-0.0011811 0zm0.400394 -8.22402l0 0 -6.36969 -1.81063c0,0 0,0 0.00236221,0l6.36733 1.81063zm-99.1713 -21.8008l0 0c0,0 -125.29,-50.5548 -163.271,-74.3162 -0.0507874,-0.0307087 -0.0968505,-0.0602363 -0.148819,-0.0921261 0.0507874,0.0307087 0.0992127,0.0614174 0.148819,0.0921261 37.9807,23.7626 163.271,74.3162 163.271,74.3162l0 0zm-163.508 -74.465c-0.0177165,-0.0106299 -0.0366142,-0.0248032 -0.0555119,-0.034252 0.0200788,0.0106299 0.0366142,0.022441 0.0555119,0.034252zm-26.0256 -59.1733c0.0330709,-0.21378 0.0649607,-0.426378 0.100394,-0.641339 -0.0366142,0.21378 -0.068504,0.429922 -0.100394,0.641339z"/>
   <g>
    <path id="_575028544" class="fil28" d="M868.655 810.755c-1.57914,-1.39016 -3.45945,-2.86181 -4.85788,-3.92717 1.39843,1.06536 3.28347,2.54173 4.85788,3.92717l0 0z"/>
    <path id="_575028208" class="fil37" d="M868.655 810.755c-1.57559,-1.38425 -3.45945,-2.86181 -4.85788,-3.92717 -0.292914,-0.225591 -0.562205,-0.426378 -0.804331,-0.608268l5.66221 4.53544z"/>
    <path id="_575027440" class="fil0" d="M849.342 900.613c21.2823,-4.50591 22.9606,-19.4811 18.4512,-40.7599 -4.49528,-21.2752 -3.48425,-28.9595 -24.7595,-24.4559l-184.847 33.0083c-28.5709,6.05079 -48.7996,16.4114 -42.7441,44.9929 6.05197,28.578 27.0839,46.9524 62.6953,40.7823 44.1461,-7.63701 171.204,-53.5678 171.204,-53.5678z"/>
    <path id="_575028160" class="fil0" d="M873.374 825.497c2.37756,4.73504 8.14016,6.64489 12.8776,4.26378l31.8697 -15.4784c4.72796,-2.37756 6.63662,-8.14607 4.26969,-12.874 -2.38583,-4.73386 -8.14607,-6.64607 -12.8811,-4.27323l-31.8685 15.4831c-4.73741,2.37874 -6.64134,8.14016 -4.26733,12.8788z"/>
    <path id="_575028136" class="fil0" d="M893.61 883.164c2.43898,4.85788 8.35867,6.82323 13.2118,4.38426l32.6044 -15.8563c4.85788,-2.44016 6.81615,-8.35512 4.38071,-13.2047 -2.44016,-4.86496 -8.36339,-6.8256 -13.2213,-4.38544l-32.5914 15.8469c-4.85906,2.4437 -6.82678,8.35749 -4.38426,13.2154z"/>
    <path id="_575027968" class="fil0" d="M882.321 843.304c2.55709,5.1 8.76615,7.16693 13.8673,4.60394l34.0666 -16.5862c5.1,-2.56063 7.14804,-8.77324 4.59922,-13.8721 -2.56299,-5.10591 -8.76497,-7.16457 -13.878,-4.60748l-34.0607 16.5839c-5.10355,2.56418 -7.1693,8.7756 -4.59449,13.878z"/>
    <path id="_575027848" class="fil0" d="M889.83 862.67c2.56063,5.10355 8.77205,7.16575 13.8732,4.60158l34.0559 -16.5827c5.1,-2.56063 7.16339,-8.77678 4.60158,-13.8756 -2.55945,-5.10237 -8.76615,-7.1693 -13.8721,-4.60158l-34.063 16.5791c-5.10237,2.56299 -7.16339,8.77324 -4.59567,13.8791z"/>
    <path id="_575027560" class="fil0" d="M889.8 808.103c0,0 -16.487,-0.42874 -21.7606,0.948426 -32.3256,8.39174 -41.3445,48.6851 -31.5036,68.2973 14.752,29.3764 45.9319,23.2358 65.556,13.3843l13.5024 -7.60985 -25.7941 -75.0201z"/>
    <path id="_575027488" class="fil2" d="M930.657 853.647c0,0 -2.04803,0.758268 -5.12717,1.89449 -3.04016,1.12205 -7.07127,2.65394 -11.1449,3.63544 -1.02047,0.272835 -2.04095,0.462992 -3.04016,0.622441 -1.00039,0.0992127 -1.9878,0.259843 -2.92323,0.225591 -1.88386,0.0129921 -3.55748,-0.39567 -4.7752,-1.20236 -0.618898,-0.381496 -1.12913,-0.8563 -1.51654,-1.34291 -0.433465,-0.46063 -0.676772,-0.964961 -0.943702,-1.35354 -0.422835,-0.857481 -0.664961,-1.34646 -0.664961,-1.34646 -0.0011811,0.0011811 0.0236221,0.546851 0.177165,1.52717 0.147638,0.468898 0.236221,1.08543 0.588189,1.71142 0.288189,0.643701 0.747638,1.35591 1.41496,1.97008 1.28858,1.31339 3.4063,2.16024 5.59489,2.32677 2.20748,0.236221 4.50355,-0.0933072 6.69686,-0.604725 4.3937,-1.08425 8.38229,-3.09213 11.1969,-4.82835 2.82284,-1.73032 4.46693,-3.23504 4.46693,-3.23504z"/>
    <path id="_575027608" class="fil2" d="M926.26 833.294c0,0 -1.60158,-0.0377953 -3.90709,0.356693 -2.3126,0.37441 -5.33268,1.15984 -8.22048,2.38229 -1.42913,0.64252 -2.85827,1.30748 -4.10551,2.11536 -1.26732,0.77126 -2.39055,1.62047 -3.24095,2.48268 -0.452363,0.390945 -0.81378,0.823229 -1.10669,1.2248 -0.309449,0.383859 -0.565748,0.718111 -0.714567,1.05236 -0.324803,0.633071 -0.472441,0.987402 -0.472441,0.987402 0,0 0.312992,-0.23504 0.861024,-0.644882 0.537402,-0.396851 1.3252,-0.905906 2.32323,-1.42087 1.96417,-1.05118 4.69489,-2.23583 7.47166,-3.39922 2.76142,-1.18347 5.563,-2.36103 7.65001,-3.35906 2.08819,-0.973229 3.46181,-1.77756 3.46181,-1.77756z"/>
    <path id="_575027656" class="fil2" d="M918.263 814.17c0,0 -1.29803,0.0779528 -3.10866,0.533859 -1.81654,0.441733 -4.1563,1.23543 -6.39449,2.27244 -2.2311,1.04882 -4.36536,2.30079 -5.85119,3.50433 -1.53071,1.1126 -2.24882,2.32677 -2.24528,2.26063 0,0 0.309449,-0.0956694 0.849213,-0.262205 0.499607,-0.190158 1.22599,-0.399213 2.11654,-0.68504 0.864568,-0.295276 1.87323,-0.644882 2.93858,-1.05827 1.06536,-0.412205 2.17677,-0.908268 3.29173,-1.39961 2.2004,-1.03583 4.35,-2.22756 5.89134,-3.26575 1.55669,-1.01929 2.51221,-1.9004 2.51221,-1.9004z"/>
    <path id="_575027752" class="fil38" d="M944.722 861.283c-0.0011811,-0.00354331 -0.0011811,-0.00472441 -0.0011811,-0.00826772 -0.16063,-0.944883 -0.46063,-1.8874 -0.914174,-2.7874l0 0c-0.246851,-0.490158 -0.530315,-0.950788 -0.840946,-1.38307 -0.00590552,-0.00708662 -0.0106299,-0.0165354 -0.0165354,-0.022441 -0.00354331,-0.00472441 -0.00944883,-0.0129921 -0.0129921,-0.0165354 -2.63032,-3.57756 -7.40079,-4.93583 -11.5878,-3.25276l0.46063 -0.22441c-0.00236221,0.0011811 -0.00236221,0.0011811 -0.00236221,0.0011811l-2.7 1.31221c-0.739371,0.555119 -1.71969,1.24725 -2.91614,1.98071 -2.7567,1.70197 -6.63898,3.6626 -10.9323,4.76221l-6.04016 2.94213 0.611811 1.76929c1.01575,-1.00394 2.3374,-1.7126 3.85158,-1.96654 3.91418,-0.651969 7.60867,1.98543 8.26064,5.89252 0.65315,3.90827 -1.98307,7.61103 -5.89607,8.26536 -0.680315,0.113386 -1.35473,0.127559 -2.00788,0.0507874l0.701575 2.04213c1.22835,-0.144095 2.39882,-0.356693 3.47599,-0.627166 2.20866,-0.559843 4.05591,-1.18347 5.31378,-1.69134 1.25906,-0.517323 2.00315,-0.787796 2.00315,-0.787796 0,0 -0.625985,0.468898 -1.77047,1.24016 -1.17047,0.712205 -2.84764,1.78465 -5.08819,2.66339 -0.994489,0.405118 -2.09528,0.772442 -3.30118,1.0441l0.220866 0.641339 -2.05158 1.15276 25.8839 -12.5835c3.93662,-1.9748 5.97166,-6.23623 5.30433,-10.3618 -0.00236221,-0.0165354 -0.00590552,-0.034252 -0.00826772,-0.0472441z"/>
    <path id="_575027224" class="fil38" d="M937.759 850.688l-30.1583 9.1878 0.0448819 0.127559c0.252756,0.0141732 0.512599,0.022441 0.775985,0.0212599 0.935434,0.0354331 1.92284,-0.126378 2.92323,-0.225591 0.999213,-0.159449 2.01969,-0.349607 3.04016,-0.622441 4.07481,-0.981497 8.10473,-2.51339 11.1449,-3.63544 3.07914,-1.13386 5.12717,-1.89449 5.12717,-1.89449 0,0 -0.544489,0.500788 -1.55079,1.25433l2.7 -1.31221 5.95276 -2.90079zm-22.5024 10.9547c-0.0862205,0.0236221 -0.174803,0.0484252 -0.263386,0.0673229 -1.02284,0.239764 -2.07047,0.437008 -3.12047,0.558662 -0.591733,0.337796 -1.2189,0.713386 -1.86614,1.12087 -0.314173,0.209055 -0.644882,0.426378 -0.972048,0.661418l0.183071 0.53504 6.03898 -2.94331zm-6.54331 0.709843c-0.090945,-0.00472441 -0.179528,-0.0129921 -0.269292,-0.0248032l0.0472441 0.137008c0.0732284,-0.0389764 0.146457,-0.0744095 0.222047,-0.112205z"/>
    <path id="_575027080" class="fil39" d="M930.657 853.647c0,0 -2.04803,0.758268 -5.12717,1.89449 -3.04016,1.12205 -7.07127,2.65394 -11.1449,3.63544 -1.02047,0.272835 -2.04095,0.462992 -3.04016,0.622441 -1.00039,0.0992127 -1.9878,0.259843 -2.92323,0.225591 -0.263386,0.0011811 -0.523229,-0.00708662 -0.775985,-0.022441 -0.12874,-0.00472441 -0.255118,-0.0153543 -0.379134,-0.0248032l-3.3 1.00394c1.22008,0.742914 2.75551,1.21417 4.32992,1.33347 0.0472441,0.00472441 0.0980316,0.011811 0.147638,0.0129921 0.0897638,0.011811 0.178347,0.0188977 0.269292,0.0248032 1.0441,0.0779528 2.10354,0.0377953 3.15945,-0.0838583 1.05,-0.121654 2.09764,-0.318898 3.12047,-0.558662 0.0874016,-0.0177165 0.177165,-0.046063 0.264567,-0.0661418 4.29213,-1.09724 8.17442,-3.06142 10.9323,-4.76221 1.19646,-0.733465 2.17677,-1.42559 2.91614,-1.98071 1.0063,-0.753544 1.55079,-1.25433 1.55079,-1.25433z"/>
   </g>
   <path id="_575026984" class="fil40" d="M777.885 1645.21c0.00590552,0 0.00826772,0 0.0153543,0 -0.00708662,0 -0.00826772,0 -0.0153543,0l0 0zm-0.0165354 0c-27.1229,-0.00472441 -47.4638,-4.92166 -64.5154,-9.94017 17.054,5.01851 37.3902,9.93662 64.5154,9.94017zm32.8134 -2.22756c0.00354331,0 0.00826772,-0.0011811 0.00944883,-0.0011811 -0.0011811,0 -0.00590552,0.0011811 -0.00944883,0.0011811zm0.861024 -0.113386l0 0c0.0401575,-0.00590552 0.0755906,-0.00708662 0.115748,-0.0141732 -0.0401575,0.00708662 -0.0755906,0.00826772 -0.115748,0.0141732l0 0zm0.16063 -0.0200788c0.0248032,-0.00472441 0.0437008,-0.00826772 0.068504,-0.011811 -0.0212599,0.00354331 -0.0472441,0.00708662 -0.068504,0.011811zm0.119291 -0.0165354c0.0354331,-0.00708662 0.0720473,-0.00944883 0.103937,-0.0129921 -0.0354331,0.00354331 -0.0673229,0.00590552 -0.103937,0.0129921zm0.162992 -0.0236221c0.0177165,-0.00236221 0.0318898,-0.00472441 0.0484252,-0.00826772 -0.0177165,0.00354331 -0.0307087,0.00590552 -0.0484252,0.00826772l0 0zm0.11811 -0.0153543c0.0106299,-0.00354331 0.0212599,-0.00590552 0.0330709,-0.00590552 -0.0141732,0.00236221 -0.0188977,0.00236221 -0.0330709,0.00590552zm0.292914 -0.0425197c0.00236221,0 0.00472441,-0.00354331 0.00472441,-0.00354331 -0.00236221,0 -0.00236221,0.00354331 -0.00472441,0.00354331zm-100.603 -7.94292c-0.0791339,-0.0236221 -0.152362,-0.0448819 -0.229134,-0.068504 0.0767717,0.0236221 0.15,0.0448819 0.229134,0.068504l0 0zm-0.623623 -0.187795c-16.7433,-5.0067 -30.3709,-9.90946 -44.3681,-9.91418 13.9973,0.00472441 27.6248,4.90748 44.3681,9.91418l0 0zm-63.5315 -6.61064c0.0744095,-0.0248032 0.148819,-0.0496063 0.225591,-0.0779528 -0.0767717,0.0283465 -0.151181,0.0531496 -0.225591,0.0779528l0 0zm19.1268 -3.30355c0.00236221,0 0.00944883,0 0.011811,0l0 0c-0.00236221,0 -0.00826772,0 -0.011811,0z"/>
  </g>
 </g>
 <rect class="fil41" width="2048" height="2048"/>
</svg>
